<svg xmlns="http://www.w3.org/2000/svg" viewBox="0 0 1920 727.31"><defs><style>.cls-1{fill:#2c3e4f;}.cls-2{opacity:0.2;}.cls-3{fill:#a9fff9;}</style></defs><title>Layer 1</title><g id="Layer_2" data-name="Layer 2"><g id="Layer_1-2" data-name="Layer 1"><rect class="cls-1" y="0.52" width="1920" height="726.28"/><g class="cls-2"><path class="cls-3" d="M735.11,698.4c3.12-2.81,4.36-6.58,3.24-9.82-1.76-5.16-8.88-8-19.47-7.83a129.57,129.57,0,0,0-52.15,11.64c-17.29,8.07-31.11,19.72-41.05,34.61l-.22.31h1.2c18.75-27.82,53.2-44.83,92.23-45.52,10.2-.17,17,2.43,18.57,7.15,1,2.82-.17,6.14-3,8.66-15.51,14-14.53,23.84-10.84,29.71h1.17l-.19-.3C719.38,719.05,722.9,709.42,735.11,698.4Z"/><path class="cls-3" d="M953.66,36.82c-27.61-6.2-65.41-14.69-127.3-34.9-1.9-.62-3.91-1.26-6.08-1.92h-3.49l1.57.49c2.83.86,5.35,1.65,7.72,2.42C888,23.13,925.84,31.63,953.46,37.84l6.38,1.43.16.06V38.25Z"/><path class="cls-3" d="M936.87,19.67C910.61,13.77,880.94,7.1,857.44,0h-3.33l1.38.49c23.81,7.3,54.29,14.15,81.19,20.2,8.16,1.83,15.87,3.56,23.19,5.26l.13,0V24.92C952.68,23.22,945,21.5,936.87,19.67Z"/><path class="cls-3" d="M935.76,9.2C921.07,5.84,908.29,2.92,896.93,0h-3.81l1.59.5C906.6,3.6,920,6.66,935.57,10.22c7.79,1.78,15.85,3.62,24.32,5.6l.11,0V14.79C951.56,12.81,943.53,11,935.76,9.2Z"/><path class="cls-3" d="M231.67,184.37c20.68-13.5,40.21-26.26,57.29-35.4,73.62-39.42,105.31-23.69,118.93-3.56,19.6,29,12,76.46-.51,155.13q-1.56,9.75-3.2,20.15c-.25,1.56-.56,3.44-.91,5.59-4.38,26.55-16,97.07,5.26,109.51a7.42,7.42,0,0,0,3.76,1.1,6.78,6.78,0,0,0,2.61-.54c9.15-3.79,17.08-27.66,26.27-55.31,11.69-35.18,26.24-79,48.3-94.89,10.39-7.5,29.54-12.72,48-17.77,5.17-1.41,10.51-2.87,15.45-4.33,10.71-3.15,26.4-8.84,38.91-21.77,10-10.36,19.49-22.14,27.83-32.53,6.2-7.71,12-15,17.27-20.64l3.63-3.92c23-24.87,41.17-44.52,60.56-56.19,30.62-18.45,54.7-24.58,95.47-24.29,2.38,0,5.36.09,8.81.19,22.91.62,65.57,1.79,76.29-12.51a13.14,13.14,0,0,0,2.15-11.13c-6.34-29-73.17-28.21-109.08-27.76-12.51.16-24.44.9-35,1.56-24.62,1.54-44.06,2.76-52.28-4.81-7.66-7.06-4.07-18.3-1.18-27.33,1.9-5.94,3.54-11.08,1.75-14-4.29-7-15.74-6.53-29.88,1.13-33.35,18.05-41.14,70.61-48.68,121.44-1.61,10.82-3.27,22-5.14,32.47-10.93,61.12-24.39,84.8-78.23,96-34.27,7.1-57.39,21.48-72.74,45.23-1.26,1.95-2.55,4.18-3.8,6.33-5.1,8.81-10.37,17.92-16.53,14.29-9.34-5.49-4.44-44-1.81-64.69.44-3.48.83-6.49,1.08-8.86.33-3,.67-6,1-9.06,3-26.7,6.12-54.31.88-81.25-4.95-25.45-15.49-43.32-31.33-53.11-21.64-13.38-53-12.26-96,3.44-42.39,15.5-81.09,40.31-118.52,64.31-11.68,7.49-23.76,15.23-35.8,22.59C107,227.09,57.22,244.49.49,252.34v1H.55c56.89-7.87,106.8-25.31,152.6-53.32,12-7.37,24.12-15.12,35.81-22.61,37.38-24,76-48.75,118.34-64.22,42.67-15.59,73.8-16.75,95.2-3.52,15.59,9.64,26,27.28,30.86,52.43,5.21,26.76,2.11,54.29-.89,80.91q-.51,4.53-1,9c-.26,2.37-.64,5.37-1.08,8.85-2.85,22.41-7.63,59.91,2.3,65.75,7,4.09,12.47-5.44,17.8-14.66,1.3-2.24,2.53-4.36,3.77-6.28,15.2-23.52,38.13-37.76,72.14-44.81,54.38-11.28,68-35.17,79-96.79,1.88-10.48,3.54-21.68,5.14-32.5C618,81.08,625.78,28.79,658.69,11c13.67-7.41,24.65-8,28.65-1.48,1.53,2.49,0,7.4-1.85,13.08-3,9.33-6.7,20.94,1.46,28.46,8.51,7.84,27.15,6.67,52.95,5.06,10.52-.66,22.43-1.41,34.92-1.56,35.64-.44,102-1.26,108.13,27a12,12,0,0,1-2,10.24c-10.42,13.9-52.77,12.74-75.52,12.12-3.45-.09-6.43-.18-8.82-.19h-2.72c-39.31,0-63.13,6.29-93.23,24.43-19.5,11.75-37.71,31.44-60.77,56.37l-3.62,3.92c-5.25,5.66-11.11,13-17.32,20.69-8.33,10.38-17.78,22.13-27.77,32.46-12.35,12.76-27.89,18.4-38.5,21.52-4.94,1.46-10.27,2.91-15.43,4.32-18.59,5.07-37.82,10.31-48.36,17.92-22.31,16.11-36.92,60.07-48.66,95.4-9.11,27.4-17,51.07-25.71,54.69a5.92,5.92,0,0,1-5.57-.5c-20.67-12.09-9.13-82.07-4.78-108.42.36-2.15.67-4,.91-5.59q1.65-10.41,3.2-20.15c12.59-79,20.19-126.6.35-155.92-13.84-20.46-45.92-36.5-120.13,3.23-17.12,9.17-36.67,21.94-57.36,35.45-62.7,41-140.72,91.91-230.69,98.77v1.05h0C90.73,276.43,168.88,225.39,231.67,184.37Z"/><path class="cls-3" d="M184,150.85c13.76-7.37,28-15,43.56-23,114.23-59,157.88-54.62,183.14-44.23,31.82,13.08,46.89,48,44.79,103.74-.7,18.44-3.33,35.47-5.44,49.15-3.3,21.35-5.48,35.45,1.56,39a4.19,4.19,0,0,0,1.94.45c2.49,0,5.55-1.91,10-4.7a118.58,118.58,0,0,1,27.42-13.38,243.29,243.29,0,0,1,30.95-7.95,229.55,229.55,0,0,0,25.82-6.42c34.86-11.19,41-66.28,47-119.56,2.39-21.47,4.87-43.67,9.18-62.82,5.27-23.45,10.93-42.45,21.41-59,.39-.61.79-1.22,1.19-1.82l.19-.29h-1.17c-.34.5-.67,1-1,1.52-10.56,16.65-16.26,35.75-21.56,59.3-4.31,19.22-6.8,41.45-9.2,63-5.91,52.94-12,107.69-46.28,118.68a226.29,226.29,0,0,1-25.72,6.4,245.59,245.59,0,0,0-31.05,8A120.22,120.22,0,0,0,463,270.3c-5.38,3.38-8.63,5.42-11,4.21-6.37-3.18-4.12-17.72-1-37.84,2.12-13.72,4.76-30.78,5.46-49.29,2.12-56.25-13.16-91.5-45.41-104.75-25.44-10.46-69.33-14.88-183.89,44.26-15.59,8-29.81,15.66-43.57,23C119.3,184.32,72.87,209.18.49,216.66v1h0C73.12,210.2,119.62,185.31,184,150.85Z"/><path class="cls-3" d="M109.21,286.9c28.87-12.29,57.73-29,88.25-51.14,3.91-2.84,8.21-6,12.82-9.4,46.54-34.24,124.44-91.55,162.25-76.66,44.06,17.34,32.07,78.61,10.3,189.85l-.71,3.67c-13,66.4-17,111-12.21,136.38,2.84,15.08,9,25.1,17.48,28.2a16.47,16.47,0,0,0,5.66,1c4.95,0,10-2.21,14.52-6.44,21.15-19.9,29.8-52.48,39-87l.59-2.22c13-48.8,28.75-88.95,41.17-104.78,13.16-16.76,32.51-22.93,51.19-27.81,4.61-1.2,9-2.31,13.26-3.37,29.79-7.47,51.31-12.86,72.41-35.1,10.65-11.24,20.08-22.44,29.19-33.28,31.59-37.56,58.87-70,117.43-78.79,20.07-3,39-3.09,57.28-3.17,24.63-.09,47.9-.18,71.61-7.31,13.23-4,21.56-9.94,25.46-18.22C930.46,92.09,929,79.8,922.31,70c-5.15-7.57-12.9-13.65-24.38-19.12C879.51,42.11,859.47,38,840.09,34L764.21,18.43A111.9,111.9,0,0,1,733.29,7.19,24.39,24.39,0,0,1,724.86,0h-1.18l.18.3a25.07,25.07,0,0,0,9,7.82A112.51,112.51,0,0,0,764,19.45L839.91,35c19.33,4,39.31,8.07,57.64,16.81,11.32,5.4,18.94,11.37,24,18.78,6.44,9.48,7.9,21.35,3.72,30.24-3.76,8-11.9,13.81-24.86,17.7-23.58,7.09-46.79,7.18-71.36,7.27-18.32.08-37.27.15-57.4,3.18-58.9,8.85-86.29,41.41-118,79.12-9.1,10.83-18.52,22-29.15,33.23-20.91,22-42.32,27.41-72,34.83-4.25,1.07-8.66,2.17-13.27,3.38-18.84,4.92-38.36,11.15-51.7,28.15C475.05,323.65,459.21,364,446.2,412.88l-.59,2.22c-9.12,34.34-17.73,66.78-38.67,86.48-6,5.62-13,7.53-19.24,5.23-8.1-3-14.08-12.71-16.85-27.42-4.75-25.23-.76-69.7,12.21-136l.71-3.66c21.88-111.81,33.93-173.4-10.92-191-38.27-15.07-116.41,42.43-163.1,76.78-4.61,3.39-8.91,6.56-12.83,9.4-68,49.3-130.43,73.52-196.43,76.19v1h0C36.78,310.66,73.36,302.17,109.21,286.9Z"/><path class="cls-3" d="M959.93,151.87c-22.63,3.55-60.74,3.09-109,2.5-8.78-.1-17.85-.21-27.15-.3-35.28-.31-68.51,7.53-91.18,21.58-19,11.78-36.25,29.66-52.92,46.94-16.15,16.74-32.84,34-50.95,45.54-18.81,11.92-40.42,16.65-61.32,21.22-28,6.13-54.47,11.92-72.78,33.9-19.25,23.13-29,61.38-39.35,101.89-4,15.57-8.09,31.68-12.78,46.79-9.32,30.06-28.47,71.27-47,91.88-11.45,12.71-23.17,19-33,17.67-6.92-.93-12.83-5.62-17.09-13.56-15-27.95.46-117.54,15.41-204.18.92-5.33,2.68-13.34,4.72-22.63,9.64-43.86,27.57-125.52,7.66-154.41A31.81,31.81,0,0,0,350,172.59c-28.64-3.49-70.73,24.71-98.08,49.92-2.62,2.41-5.24,4.86-7.89,7.32-33.21,30.92-70.84,66-139.55,79.8A541.62,541.62,0,0,0,.49,341.7v1.13l.18-.08a540,540,0,0,1,104-32.1c69-13.88,106.7-49,140-80,2.65-2.46,5.28-4.91,7.9-7.32,27.19-25.08,69-53.14,97.34-49.68a30.89,30.89,0,0,1,22.53,13.7c19.65,28.51,1.78,109.85-7.83,153.55-2,9.3-3.8,17.33-4.73,22.68-15,86.82-30.46,176.61-15.29,204.89,4.41,8.23,10.57,13.1,17.8,14.07a20.63,20.63,0,0,0,2.73.18c9.53,0,20.45-6.35,31.08-18.15,18.67-20.72,37.91-62.11,47.26-92.28,4.7-15.14,8.81-31.26,12.79-46.85C466.51,385,476.25,346.89,495.35,324c18.09-21.73,44.4-27.49,72.25-33.58,21-4.59,42.67-9.33,61.61-21.35,18.21-11.54,34.95-28.9,51.13-45.68,16.63-17.24,33.82-35.07,52.73-46.79,22.53-14,55.62-21.77,90.7-21.44,9.3.09,18.37.2,27.15.3,48.26.58,86.39,1,109.08-2.51v-1Z"/><path class="cls-3" d="M959.93,180.54c-31.69,5.1-62.77,6.07-95.67,7.11-12.64.39-25.71.81-39.09,1.46-35.33,1.74-64.41,9.86-86.42,24.13-19.94,12.92-34.57,27.13-48.72,40.87-16,15.51-31,30.16-50.69,38.75-16.08,7-34.67,10.63-52.64,14.11-33.36,6.47-67.84,13.16-86.06,42.18-12.27,19.55-22.09,51.51-34.51,92C460,461.22,453,484,444.77,508.1c-10.39,30.55-27.11,66-44.72,95-28.12,46.16-52,65.83-73.13,60.14-40.81-11-17.83-135.14-9.18-181.86,1.09-5.87,1.94-10.5,2.43-13.59,3.94-24.92,10.92-54.38,18.3-85.57,13.8-58.32,28.07-118.61,23.3-153.9-2-14.91-9.1-25.6-19.91-30.1-18.07-7.51-44.13,2.82-73.39,29.09-14.65,13.15-25.78,26.53-36.55,39.47-17,20.46-33.12,39.78-59.88,53.32-17.72,8.95-41.47,11.68-64.44,14.31-15,1.72-29.28,3.35-42,6.6-29.1,7.45-53.23,22.62-65.14,31.1v1.22l.26-.16c11.81-8.43,36-23.68,65.1-31.15,12.64-3.23,26.83-4.86,41.85-6.58,23-2.64,46.89-5.37,64.74-14.4,26.94-13.63,43.09-33,60.19-53.57,10.75-12.91,21.86-26.26,36.45-39.36,29-26,54.7-36.29,72.43-28.92,10.48,4.36,17.34,14.76,19.31,29.28,4.75,35.08-9.5,95.27-23.28,153.49-7.39,31.21-14.37,60.7-18.31,85.66-.49,3.07-1.35,7.7-2.43,13.55-8.7,47-31.81,171.83,9.89,183.08a29,29,0,0,0,7.61,1c9.27,0,18.9-4.47,29.23-13.5,11.57-10.14,23.78-25.87,37.32-48.1,17.65-29,34.4-64.55,44.82-95.17,8.21-24.12,15.2-46.91,21.37-67,12.4-40.38,22.19-72.28,34.39-91.71,18-28.67,50.75-35,85.43-41.74,18-3.5,36.67-7.11,52.84-14.18,19.81-8.65,34.95-23.36,51-38.94,14.12-13.71,28.71-27.88,48.57-40.75,21.88-14.18,50.8-22.25,86-24,13.38-.66,26.44-1.07,39.08-1.46,32.9-1,64-2,95.71-7.11v-1.06Z"/><path class="cls-3" d="M960,216.67c-69.58,7.18-92,8.37-111.76,9.43-6.07.32-11.81.62-18.55,1.09-24,1.66-39.86,3.05-62,10.59C740.49,247,726,261.9,699.57,288.94c-3.76,3.86-7.77,8-12.08,12.33C660.6,328.49,628,331.09,596.42,333.6c-36,2.87-70,5.58-88.14,46.79-10.31,23.4-17.46,49.27-25,76.66-12.44,45-26.54,96-58.75,152.57-41.81,73.49-78.16,103.73-114.42,95.21-48.22-11.35-31.17-108.22-22-160.27.86-4.88,1.67-9.48,2.33-13.49,2.54-15.38,8.24-38.42,14.84-65.08,14.59-59,32.76-132.42,33.5-186.56.33-24.08-7.05-43.14-19.28-49.73-7-3.77-18.83-5.31-35.49,8.74-13.78,11.61-24.39,29.09-35.63,47.59-19.81,32.6-40.29,66.31-80.66,72.15-15.42,2.23-29.7,2.45-43.5,2.67C86.45,361.43,50.82,362,.49,403.64v1.3l.29-.23C51,363,86.56,362.47,124.19,361.89c13.83-.22,28.14-.44,43.62-2.68,40.8-5.9,61.4-39.81,81.33-72.61,11.19-18.43,21.77-35.83,35.42-47.34,12.88-10.86,24.8-13.85,34.47-8.63,11.89,6.41,19.08,25.11,18.75,48.78-.74,54-18.89,127.37-33.47,186.31-6.6,26.69-12.31,49.74-14.85,65.17-.66,4-1.47,8.6-2.33,13.48-9.22,52.39-26.38,149.91,22.74,161.47a50.62,50.62,0,0,0,11.71,1.37c16.38,0,33.16-7.92,50.05-23.65,17.09-15.92,34.65-39.93,53.69-73.4,32.28-56.72,46.39-107.77,58.85-152.81,7.56-27.35,14.7-53.18,25-76.51,17.91-40.67,51.64-43.35,87.35-46.2,31.72-2.53,64.51-5.14,91.66-32.61,4.31-4.37,8.32-8.47,12.08-12.33,26.28-26.94,40.76-41.77,67.69-50.93,22-7.5,37.83-8.89,61.78-10.54,6.73-.47,12.47-.77,18.54-1.1,19.77-1,42.19-2.24,111.76-9.43v-1Z"/><path class="cls-3" d="M257.25,631.28c4-35.34,9-79.33,25.31-131.88.48-1.54,1.05-3.37,1.71-5.46,6.4-20.38,21.39-68.1,29.91-112.8,10.63-55.8,7.94-89.05-8-98.84-27.07-16.63-52.46,29.78-67.63,57.52-3.32,6.07-6.19,11.32-8.5,14.87-20.42,31.39-42.68,39.16-88.2,30.78-27.24-5-49.87-3.9-71.23,3.51-25.2,8.73-48.15,26.29-70.14,53.66v1.57l.36-.45c51.42-64.27,102.28-64.37,140.85-57.26,24.06,4.43,41.7,4.06,55.52-1.15,12.9-4.87,23.27-14.14,33.62-30.06,2.34-3.59,5.21-8.85,8.55-14.94,15-27.41,40.08-73.28,66.33-57.15,24.32,14.94,16.8,85.73-22.36,210.41-.65,2.09-1.23,3.92-1.71,5.46-16.35,52.64-21.34,96.69-25.35,132.08-4.93,43.51-8.49,75-29.66,95.75l-.48.41h1.47C248.75,706.22,252.33,674.75,257.25,631.28Z"/><path class="cls-3" d="M240.84,631.26c4.51-36.7,13.49-70.73,23-106.76,11.59-43.88,23.57-89.26,27.76-142.13,1-12.23,1.64-25.2-1.72-37.58-.93-3.43-3.78-11.5-10.12-12.26-7-.82-11.4,7.59-14.12,14C253.27,375.67,237.59,396,219,407c-17.85,10.58-40.5,4.81-62.4-.77-6.38-1.63-12.41-3.16-18.27-4.28-58.07-11.13-81.2,13.39-108,41.77-11.83,12.55-27.31,32.61-29.91,36v1.69l.37-.55c.17-.22,17.36-22.76,30.21-36.39C57.66,416.29,80.62,392,138.2,403c5.84,1.12,11.85,2.65,18.22,4.27,22.08,5.63,44.91,11.44,63.08.68,18.74-11.11,34.56-31.62,47-61,2.59-6.11,6.78-14.16,13.14-13.39,5.77.68,8.43,8.28,9.31,11.51,3.31,12.21,2.65,25.07,1.69,37.2-4.19,52.77-16.16,98.1-27.73,141.94-9.52,36.06-18.51,70.13-23,106.9-6.17,50.27-20.3,78.9-47.26,95.74l-.7.45h1.88C220.59,710.23,234.68,681.44,240.84,631.26Z"/><path class="cls-3" d="M231.73,587c3.6-16.28,7.33-33.11,12-50.16q2.58-9.48,5-18.26c13.45-48.79,22.33-81,14.61-95.91-5.7-11-12.72-6.8-23.36-.43s-25.47,15.24-47.07,13.66c-11.18-.81-22.34-4.27-34.16-7.93-25.5-7.91-51.87-16.08-81.22,1.82C42.75,450.94,8.16,509.5.49,523v2.11l.41-.85C7.59,512.41,42.74,452.14,78,430.64c29-17.68,55.17-9.57,80.48-1.73,11.87,3.68,23.09,7.16,34.37,8,21.88,1.6,36.74-7.3,47.59-13.8,10.5-6.28,16.83-10.07,22.07,0,7.51,14.51-1.32,46.58-14.7,95.11q-2.43,8.79-5,18.26c-4.66,17.08-8.39,33.93-12,50.22-13.52,61.06-25.2,113.78-76.47,140.12l-1.16.48h2.43C206.54,700.6,218.22,647.91,231.73,587Z"/><path class="cls-3" d="M180.4,671.92c13.41-24.47,21.77-55.74,30.21-95.16,3.35-15.64,6.86-29.53,9.95-41.79,7.7-30.49,12.79-50.63,5.79-60.47-4.87-6.85-9.31-6.84-18.19-6.82-9.83,0-24.69.05-51.61-8.94-29.07-9.71-46.87-10.05-68-1.3-34.85,14.42-72.88,85.8-88,116.78v2.14l.42-.79c14.84-30.42,53.1-102.73,88-117.16,20.92-8.66,38.56-8.31,67.4,1.32,27,9,42,9,51.9,9,8.82,0,12.84,0,17.42,6.43,6.7,9.43,1.67,29.37-6,59.55-3.1,12.27-6.61,26.18-10,41.84-17.95,83.86-35.39,125.47-91.26,150.3l-1.16.48h2.56C147.22,714.9,166.51,697.28,180.4,671.92Z"/><path class="cls-3" d="M118.75.48,119.92,0h-2.67C86.12,12.94,21.43,9,.61,5.2l-.12,0V6.23C10.57,8.07,30.72,9.92,52.42,9.92,76.53,9.92,102.55,7.63,118.75.48Z"/><path class="cls-3" d="M154.68.47l1-.47h-2.33C96.92,28.77,18.59,19,.61,14.81l-.12,0v1.07c8.36,1.94,29.37,5,55.13,5C86.37,20.88,123.88,16.48,154.68.47Z"/><path class="cls-3" d="M193.1.45l.77-.45h-1.93C129.15,42.24,32.6,32.35.62,25l-.13,0V26c13.4,3.09,37.95,6.6,66.59,6.6C107.57,32.58,156.24,25.56,193.1.45Z"/><path class="cls-3" d="M227.25.38l.4-.38h-1.44C159,67.66,36.57,46.41.6,38.27l-.11,0v1.06A401,401,0,0,0,85.91,49C133.72,49,189.31,38.88,227.25.38Z"/><path class="cls-3" d="M809.09,724c-19-5.53-35.47-10.31-38.47-20-1.49-4.8.32-10.67,5.53-18a5.73,5.73,0,0,0,1.13-5.1c-1.74-6-14.55-10.21-28.11-14.71-16.22-5.39-33-11-31.22-19.36,2-9.35,12.7-14.86,25.14-21.23a164.15,164.15,0,0,0,19.51-11.18,225.39,225.39,0,0,0,27.13-22.26c9.19-8.57,17.13-16,36.7-26,59.27-30.21,106.43-88.51,131.76-119.83l1.81-2.22v-1.57l-2.53,3.11C932.18,477,885.11,535.21,826,565.33c-19.69,10-27.68,17.48-36.92,26.1a223,223,0,0,1-27,22.18,163.42,163.42,0,0,1-19.4,11.11c-12.66,6.49-23.6,12.1-25.66,21.94-2,9.33,15.23,15.05,31.87,20.58,12.72,4.23,25.89,8.61,27.48,14a4.63,4.63,0,0,1-1,4.14c-5.42,7.59-7.28,13.78-5.68,18.93,3.17,10.2,19,14.81,39.13,20.66,2.55.74,5.17,1.51,7.82,2.3h3.81l-1.85-.5Q813.76,725.36,809.09,724Z"/><path class="cls-3" d="M959.63,480.2l-4.63,6c-13,16.88-32.58,42.37-45.53,54.71-25.79,24.55-42.24,33.77-65,46.54-10.12,5.68-21.6,12.11-35.83,20.93-17.63,10.93-27.85,21.78-30.39,32.28a18.81,18.81,0,0,0,1.67,13.76c3.84,7,12.74,11.69,21.35,16.25s16.81,8.92,17.66,14.74c.43,3-1.08,6.26-4.63,10-2.56,2.68-3.53,5.45-2.88,8.24,1.75,7.56,15.65,15.3,42.45,23.66h3.74l-1.86-.5c-27.51-8.43-41.7-16.09-43.4-23.41-.57-2.44.29-4.81,2.62-7.24,3.79-4,5.39-7.53,4.9-10.89-.92-6.35-9.31-10.8-18.18-15.51-8.48-4.5-17.25-9.15-21-15.86a17.67,17.67,0,0,1-1.56-13c2.47-10.21,12.54-20.86,29.94-31.64,14.21-8.81,25.67-15.24,35.79-20.91,22.83-12.8,39.32-22,65.19-46.68,13-12.39,32.64-37.93,45.63-54.82l4.27-5.55V479.6Z"/><path class="cls-3" d="M959.59,523.73C943.67,552,915.75,579.54,888.46,594l-3.91,2.07c-11.88,6.26-26.65,14.06-42.33,24.11-10.23,6.55-15.58,12.77-16.37,19-1,7.65,4.8,14.18,10.92,21.1,7.68,8.68,15.63,17.66,10.06,29.38-2.47,5.19-2.81,9.73-1.06,13.87,4.44,10.49,21.94,17.15,47,23.78h4.54l-2.37-.5c-22.34-5.82-43.64-12.72-48.3-23.71-1.62-3.84-1.28-8.08,1-13,5.88-12.37-2.3-21.63-10.22-30.57-6-6.73-11.57-13.08-10.66-20.23.74-5.91,6-11.88,15.9-18.26,15.65-10,30.41-17.81,42.27-24.07l3.91-2.07C916.1,580.51,943.94,553.11,960,525v-1.92Z"/><path class="cls-3" d="M959.58,575.08c-20.08,40.27-43.43,64.21-60.47,81.7-9.17,9.41-16.42,16.84-20.75,24.18-2.92,4.94-3.46,10-1.61,14.92,4.57,12.25,23.55,23.1,54.92,31.43h3.54l0-.14-1.41-.36c-40.7-10.5-53-22.83-56.19-31.32-1.73-4.63-1.22-9.33,1.52-14,4.27-7.24,11.48-14.63,20.61-24,17-17.41,40.17-41.21,60.23-81.12v-2.19Z"/><path class="cls-3" d="M710.2,75.33c-15.6,3.27-29.33,5.23-35,5-7.66-.31-8.91-5.75-9.93-14-.39-3.13-1.56-5.07-3.49-5.79-3.93-1.46-9.89,2.85-13.8,7-7.93,8.41-15.74,26.87-19.43,45.92-1.73,8.9-10,53.61-3.74,59.94a2.49,2.49,0,0,0,1.81.78,3.08,3.08,0,0,0,.88-.13c5.14-1.58,10.57-8.2,18.09-17.35,9.23-11.24,21.87-26.64,41.23-41.61a135,135,0,0,1,55.93-25.68c2.64-.49,5.4-.87,8.06-1.24,8-1.09,14.81-2,17-5.48a4.87,4.87,0,0,0,.52-3.82C766.06,69,737.36,69.63,710.2,75.33ZM767,82.06c-1.93,3.06-8.91,4-16.31,5-2.67.37-5.44.75-8.1,1.25a135.86,135.86,0,0,0-56.33,25.86c-19.44,15-32.13,30.48-41.39,41.76-7.41,9-12.76,15.54-17.63,17a1.6,1.6,0,0,1-1.77-.41c-4.28-4.32-1.06-32.73,4-59,3.65-18.88,11.35-37.12,19.16-45.4,4-4.24,9.53-8,12.82-6.75,1.55.58,2.51,2.24,2.85,4.95.88,7.16,1.8,14.56,10.85,14.93,5.73.24,19.55-1.74,35.21-5,30.66-6.43,55.17-5.25,57,2.73A3.75,3.75,0,0,1,767,82.06Z"/><path class="cls-3" d="M960,311.09c-32.21,1.3-79.51,17.94-112.57,52.18-10,10.38-19.66,22.3-29.86,34.93-27.16,33.62-55.25,68.39-96.27,81.84-75.83,24.85-95.06,46.7-120.86,90.64-14.35,24.44-22.63,48.51-29.94,69.74-7.21,21-13.45,39.09-23.77,53.66-6.24,8.81-12.18,12.35-17.66,10.55-12.18-4-19.19-32.41-20.74-58.75-.79-13.49-6.24-133.56,45-195.52,18.88-22.84,43.36-35.17,72.77-36.67,9.28-.47,17.86-.78,26.15-1.09,60.9-2.22,94.44-3.44,140.7-61.08C834.72,299.44,900.83,287.8,960,283.3v-1.05h0c-59.38,4.52-125.74,16.2-167.77,68.58-46,57.3-79.37,58.51-140,60.72-8.3.31-16.87.62-26.16,1.09-29.68,1.51-54.39,14-73.45,37-20,24.2-33.74,59.65-40.8,105.36a457.29,457.29,0,0,0-4.43,90.91c1.56,26.71,8.79,55.52,21.41,59.68a9.84,9.84,0,0,0,3.11.51c5,0,10.21-3.83,15.59-11.42,10.41-14.69,16.67-32.87,23.91-53.93s15.55-45.2,29.85-69.54C626.9,527.53,646,505.78,721.56,481c41.28-13.53,69.46-48.41,96.71-82.15,10.19-12.61,19.81-24.51,29.8-34.86C881,330,928,313.43,960,312.13v-1Z"/><path class="cls-3" d="M959.94,252.35c-50.29,7-87.88,12.4-107.81,16.41-34.62,7-59.51,18.52-83.23,38.66-8.27,7-15.52,15.55-22.54,23.81-10,11.78-20.37,23.95-33.78,31.83-19.73,11.59-41.48,12.23-62.52,12.86-8.12.24-16.51.49-24.73,1.35-34.53,3.61-63.76,19.08-86.86,46-18.94,22-34,51.93-44.62,88.86-18.79,65-18.86,132.45-18.88,154.6v2.42c-.06,21.85.41,40.89,1.43,58.2h1v0c-1-17.29-1.49-36.32-1.43-58.15v-2.43c0-22.11.09-89.39,18.84-154.29,23.8-82.4,67.76-127.52,130.65-134.1,8.19-.86,16.57-1.1,24.66-1.34,21.16-.63,43-1.28,63-13,13.55-8,24-20.2,34-32,7-8.22,14.23-16.72,22.43-23.69,23.59-20,48.36-31.53,82.81-38.46,19.91-4,57.46-9.45,107.7-16.4v-1Z"/><path class="cls-3" d="M959.82,341.78l-5.48,2.33c-17.09,7.24-38.36,16.24-64.89,35.47-17.38,12.59-31.64,29.61-46.73,47.62-13.33,15.92-27.12,32.37-44.22,47.21-18.43,16-38.61,26.82-60,38.27-41,21.94-83.31,44.63-120.17,106.84C601.68,647.66,588,673.45,576.68,727.2v.11h1c11.3-53.5,24.9-79.2,41.51-107.23,36.71-62,78.94-84.59,119.78-106.47,21.42-11.48,41.65-22.32,60.16-38.39,17.16-14.89,31-31.38,44.33-47.32,15.05-18,29.27-34.93,46.55-47.46,26.45-19.16,47.66-28.14,64.71-35.36l5.31-2.26V341.7Z"/><path class="cls-3" d="M959.74,372.26c-15.24,10.88-52.13,45-106,105.32-33.73,37.8-63.56,52.13-95.14,67.29-15.35,7.38-31.23,15-48.36,25.64-38.27,23.77-65,47.72-84.1,75.38-18.83,27.24-28,55.16-35.11,81.29l0,.13h1c14.19-52.13,34-103.28,118.72-155.9,17.09-10.61,32.94-18.23,48.27-25.59,31.67-15.2,61.58-29.57,95.44-67.52,53.48-59.95,90.18-93.95,105.52-105v-1.24Z"/><path class="cls-3" d="M959.71,403.88c-22.81,18.71-48.12,45.12-68.46,66.35-11.65,12.15-21.72,22.66-29.43,29.82-38.38,35.66-75.52,54.86-108.28,71.81-16.45,8.51-32,16.54-44.87,25.47-48.88,33.9-89.51,97.48-101.58,129.8l-.06.18h1c12.1-32.23,52.51-95.39,101.13-129.1,12.82-8.9,28.34-16.92,44.76-25.41,32.82-17,70-36.21,108.49-72,7.74-7.19,17.81-17.7,29.47-29.86,20.24-21.12,45.39-47.36,68.09-66v-1.31Z"/><path class="cls-3" d="M491.69,100.39c9.78,39.11,19.39,58,31.14,61.15a19.91,19.91,0,0,0,5.23.73c11.68,0,20.39-11.82,26.53-35.9,3.91-15.37,6.94-34.21,10.45-56C568.4,49.48,572.2,25.82,577.61.18l.08-.18h-1c-5.41,25.65-9.21,49.3-12.56,70.17-3.51,21.79-6.53,40.6-10.44,55.92-6.85,26.9-16.85,38.16-30.6,34.44-11.22-3-20.9-22.23-30.45-60.41A518.13,518.13,0,0,1,477.35,0h-1V0A518.6,518.6,0,0,0,491.69,100.39Z"/><path class="cls-3" d="M192.46,93.43C268,64.49,339.29,37.15,399.33,36.88c30.56-.14,50.61,12.78,65,41.88,9.22,18.69,15.37,39.07,21.31,58.78,8.6,28.53,16.73,55.49,32.72,68.25,5,4,10.55,6.13,15.86,6.13a19.23,19.23,0,0,0,4.28-.47A20.41,20.41,0,0,0,552,200.78c10.69-19.93,19.66-78.39,27.58-130C584.26,40.17,588.32,13.7,592,.15V0h-1c-3.7,13.66-7.75,40.07-12.44,70.64-7.9,51.49-16.85,109.85-27.46,129.62a19.46,19.46,0,0,1-12.86,10.17c-6.3,1.42-13.18-.53-19.38-5.48-15.74-12.56-23.45-38.13-32.38-67.74-6-19.75-12.11-40.17-21.38-58.94-14.48-29.33-34.64-42.43-65.34-42.43h-.49c-60.2.27-131.59,27.64-207.18,56.61C128.47,116.86,62.63,142.1.49,151.86v1H.56C62.81,143.13,128.72,117.87,192.46,93.43Z"/><path class="cls-3" d="M163,130.14c5-2,12.23-5.21,21.43-9.24,49.14-21.56,151.39-66.41,208.83-66.71h.58c28.82,0,47.2,10.93,57.84,34.35,11.31,24.91,18.45,48.33,24.75,69,4.59,15.06,8.56,28.07,13.31,39,9.83,22.69,26.55,36.72,42.29,36.72a25.4,25.4,0,0,0,9.07-1.66c19.27-7.29,28-32.19,35.25-67.34,1.55-7.53,3.44-20.25,5.82-36.36C587.89,89.25,596.55,30.84,608,.23l.14-.23H607c-11.43,30.75-20.08,89.11-25.8,127.75-2.29,15.45-4.27,28.79-5.81,36.29-7.15,34.81-15.78,59.46-34.63,66.59-17.54,6.64-38.64-7.88-50.19-34.52-4.72-10.9-8.68-23.88-13.26-38.9-6.31-20.7-13.46-44.16-24.8-69.13C441.79,64.43,422.35,53,393.25,53.16c-57.63.29-160,45.19-209.19,66.77-9.19,4-16.45,7.22-21.4,9.24C105.39,152.49,60.16,170.92.49,180.53v1.05H.56C60.36,172,105.65,153.5,163,130.14Z"/><path class="cls-3" d="M644.92,445.07c-23.37,2.31-46.43,12.25-61.68,26.59-34.34,32.26-48.78,84.63-47.85,122.21.26,10.51,2.69,17.17,6.5,17.83a4.46,4.46,0,0,0,.63,0c3.93,0,8.21-6.2,11.83-17.22,5.1-15.5,18.63-56.67,47.76-85.87,16-16,34.65-23.87,49.66-30.18,13.33-5.61,23.86-10,27.52-18a7.3,7.3,0,0,0-.18-7.31C674.44,445.8,656,444,644.92,445.07Zm33.51,15c-3.5,7.58-13.87,11.94-27,17.47-15.09,6.35-33.86,14.24-50,30.39-29.31,29.37-42.89,70.71-48,86.28-3.59,10.94-7.86,17.09-11.41,16.49-3.27-.56-5.45-7-5.69-16.83-.92-37.34,13.41-89.36,47.52-121.4,15.11-14.2,38-24,61.14-26.34,1.89-.18,4-.28,6.16-.28,10.7,0,23.61,2.36,27.14,8A6.17,6.17,0,0,1,678.43,460Z"/><path class="cls-3" d="M935.8,0h-4l1.82.51c8,2.06,16.83,4,26.27,5.71l.12,0V5.19C951.34,3.6,943.22,1.86,935.8,0Z"/><path class="cls-3" d="M71.44,701.76l.22-.16c35.47-25.28,89.07-63.48,113.76-143.49,4.85-15.74,4.29-28.75-1.69-38.67-7.47-12.42-23.1-19.91-46.47-22.27-34.81-3.52-46.8,9.39-65,32.53-10.72,13.63-19,29.87-27.07,45.57-7.09,13.84-14.41,28.16-23.5,41.06-6.32,9-12.82,16.71-19.11,24.18L.49,643v1.58l.36-.46,2.45-2.93C9.6,633.72,16.11,626,22.46,617c9.13-13,16.48-27.31,23.58-41.19,8.38-16.38,16.3-31.85,27-45.4,18-22.87,29.84-35.64,64.18-32.17,23,2.33,38.44,9.67,45.75,21.8,5.81,9.65,6.34,22.36,1.58,37.78-24.58,79.67-78,117.75-113.38,143l-.22.16C56.45,711.2,23.1,722.51.64,716l-.15,0V717a54.78,54.78,0,0,0,15,1.92C36.16,718.94,59.83,710,71.44,701.76Z"/><path class="cls-3" d="M47.64,694.33a11.9,11.9,0,0,1-3.33-.45c-3-.87-5.27-3-6.74-6.38-4.75-10.84,6.11-27,13.31-37.77,1.11-1.66,2.17-3.23,3-4.56,18.36-29,27.23-51.18,35.05-70.73,4.45-11.14,8.67-21.67,14-31.68,4-7.45,9.33-12.26,15.44-13.9,5.47-1.47,11.36-.23,17,3.6h0c11.88,8,15.43,25.6,14.86,38.22-.66,14.61-7.57,27.84-14.25,38.86a271.67,271.67,0,0,1-68.72,76.25C63.63,688.56,55,694.33,47.64,694.33ZM123,529.3a16.59,16.59,0,0,0-4.32.57c-5.85,1.57-11,6.21-14.84,13.41-5.35,10-9.55,20.46-14,31.58C82,594.45,73.1,616.66,54.68,645.75c-.85,1.35-1.91,2.92-3,4.59-7.06,10.53-17.72,26.43-13.22,36.72a9.64,9.64,0,0,0,6.13,5.82c7.56,2.19,18.07-4.83,22.23-7.94a270.7,270.7,0,0,0,68.47-76c6.61-10.9,13.45-24,14.09-38.34.56-12.34-2.88-29.51-14.41-37.29A21.45,21.45,0,0,0,123,529.3Z"/><path class="cls-3" d="M960,717c-9.82-3-25.6-12.45-29-26.26-2-8.26.81-16.65,8.38-24.93l4.21-4.61c5.4-5.88,10.92-11.91,16.38-18.2v1.58c-5.47,6.3-10.29,11.46-15.7,17.36-1.4,1.53-2.81,3.06-4.21,4.6-7.32,8-10.05,16.06-8.13,23.94,3.24,13.29,18.8,22.62,28,25.44Z"/><path class="cls-3" d="M1694.62,698.4c3.12-2.81,4.36-6.58,3.25-9.82-1.77-5.16-8.89-8-19.48-7.83a129.57,129.57,0,0,0-52.15,11.64c-17.29,8.07-31.11,19.72-41,34.61l-.22.31h1.2c18.75-27.82,53.2-44.83,92.23-45.52,10.2-.17,16.95,2.43,18.57,7.15,1,2.82-.17,6.14-3,8.66-15.51,14-14.53,23.84-10.84,29.71h1.17l-.19-.3C1678.89,719.05,1682.41,709.42,1694.62,698.4Z"/><path class="cls-3" d="M1913.17,36.82c-27.61-6.2-65.41-14.69-127.3-34.9C1784,1.3,1782,.66,1779.79,0h-3.49l1.57.49c2.83.86,5.35,1.65,7.72,2.42,61.93,20.22,99.76,28.72,127.38,34.93l6.38,1.43.16.06V38.25Z"/><path class="cls-3" d="M1896.38,19.67C1870.12,13.77,1840.45,7.1,1817,0h-3.33l1.38.49c23.81,7.3,54.29,14.15,81.19,20.2,8.16,1.83,15.87,3.56,23.19,5.26l.13,0V24.92C1912.19,23.22,1904.51,21.5,1896.38,19.67Z"/><path class="cls-3" d="M1895.27,9.2c-14.69-3.36-27.47-6.28-38.83-9.2h-3.81l1.59.5c11.89,3.1,25.31,6.16,40.86,9.72,7.79,1.78,15.85,3.62,24.32,5.6l.11,0V14.79C1911.07,12.81,1903,11,1895.27,9.2Z"/><path class="cls-3" d="M1191.18,184.37c20.68-13.5,40.21-26.26,57.29-35.4,73.62-39.42,105.31-23.69,118.93-3.56,19.6,29,12,76.46-.51,155.13q-1.56,9.75-3.2,20.15c-.25,1.56-.56,3.44-.91,5.59-4.38,26.55-16,97.07,5.26,109.51a7.42,7.42,0,0,0,3.76,1.1,6.78,6.78,0,0,0,2.61-.54c9.15-3.79,17.08-27.66,26.27-55.31,11.69-35.18,26.24-79,48.3-94.89,10.39-7.5,29.54-12.72,48-17.77,5.17-1.41,10.51-2.87,15.45-4.33,10.72-3.15,26.4-8.84,38.91-21.77,10-10.36,19.49-22.14,27.83-32.53,6.2-7.71,12-15,17.27-20.64l3.63-3.92c23-24.87,41.17-44.52,60.56-56.19,30.62-18.45,54.7-24.58,95.47-24.29,2.38,0,5.36.09,8.81.19,22.91.62,65.57,1.79,76.29-12.51a13.14,13.14,0,0,0,2.15-11.13c-6.34-29-73.17-28.21-109.08-27.76-12.51.16-24.44.9-35,1.56-24.62,1.54-44.06,2.76-52.28-4.81-7.66-7.06-4.07-18.3-1.18-27.33,1.9-5.94,3.54-11.08,1.75-14-4.29-7-15.74-6.53-29.88,1.13-33.35,18.05-41.14,70.61-48.68,121.44-1.61,10.82-3.27,22-5.14,32.47-10.93,61.12-24.39,84.8-78.23,96-34.27,7.1-57.39,21.48-72.74,45.23-1.26,1.95-2.55,4.18-3.8,6.33-5.1,8.81-10.37,17.92-16.53,14.29-9.34-5.49-4.44-44-1.81-64.69.44-3.48.83-6.49,1.08-8.86.33-3,.67-6,1-9.06,3-26.7,6.12-54.31.88-81.25-5-25.45-15.49-43.32-31.33-53.11-21.64-13.38-53-12.26-96,3.44-42.39,15.5-81.09,40.31-118.52,64.31-11.68,7.49-23.76,15.23-35.79,22.59-45.68,27.94-95.46,45.34-152.19,53.19v1h.06c56.89-7.87,106.8-25.31,152.6-53.32,12-7.37,24.12-15.12,35.81-22.61,37.38-24,76-48.75,118.34-64.22,42.67-15.59,73.81-16.75,95.2-3.52,15.59,9.64,26,27.28,30.86,52.43,5.21,26.76,2.11,54.29-.89,80.91q-.51,4.53-1,9c-.26,2.37-.64,5.37-1.08,8.85-2.85,22.41-7.63,59.91,2.3,65.75,7,4.09,12.47-5.44,17.8-14.66,1.3-2.24,2.53-4.36,3.77-6.28C1429,282.24,1451.89,268,1485.9,261c54.38-11.28,68-35.17,79-96.79,1.88-10.48,3.54-21.68,5.14-32.5,7.51-50.58,15.26-102.87,48.17-120.68,13.67-7.41,24.65-8,28.65-1.48,1.53,2.49,0,7.4-1.85,13.08-3,9.33-6.7,20.94,1.46,28.46,8.51,7.84,27.15,6.67,53,5.06,10.52-.66,22.43-1.41,34.92-1.56,35.64-.44,102-1.26,108.13,27a12,12,0,0,1-2,10.24c-10.42,13.9-52.76,12.74-75.52,12.12-3.45-.09-6.43-.18-8.82-.19h-2.72c-39.31,0-63.13,6.29-93.23,24.43-19.5,11.75-37.71,31.44-60.77,56.37l-3.62,3.92c-5.25,5.66-11.11,13-17.32,20.69-8.33,10.38-17.78,22.13-27.77,32.46-12.35,12.76-27.89,18.4-38.5,21.52-4.94,1.46-10.27,2.91-15.43,4.32-18.59,5.07-37.82,10.31-48.36,17.92-22.31,16.11-36.92,60.07-48.66,95.4-9.11,27.4-17,51.07-25.71,54.69a5.92,5.92,0,0,1-5.57-.5c-20.67-12.09-9.13-82.07-4.78-108.42.36-2.15.67-4,.91-5.59q1.65-10.41,3.2-20.15c12.59-79,20.19-126.6.35-155.92-13.84-20.46-45.92-36.5-120.13,3.23-17.12,9.17-36.67,21.94-57.36,35.45C1128,224.43,1050,275.39,960,282.25v1.05h0C1050.24,276.43,1128.39,225.39,1191.18,184.37Z"/><path class="cls-3" d="M1143.48,150.85c13.76-7.37,28-15,43.56-23,114.23-59,157.88-54.62,183.14-44.23,31.82,13.08,46.89,48,44.79,103.74-.7,18.44-3.33,35.47-5.44,49.15-3.3,21.35-5.48,35.45,1.56,39a4.19,4.19,0,0,0,1.94.45c2.49,0,5.55-1.91,10-4.7a118.58,118.58,0,0,1,27.42-13.38,243.29,243.29,0,0,1,31-7.95,229.55,229.55,0,0,0,25.82-6.42c34.86-11.19,41-66.28,47-119.56,2.39-21.47,4.87-43.67,9.18-62.82,5.27-23.45,10.93-42.45,21.42-59,.38-.61.78-1.22,1.18-1.82l.19-.29H1585c-.34.5-.67,1-1,1.52-10.56,16.65-16.26,35.75-21.55,59.3-4.32,19.22-6.81,41.45-9.21,63-5.91,52.94-12,107.69-46.27,118.68a226.94,226.94,0,0,1-25.73,6.4,246,246,0,0,0-31,8,119.9,119.9,0,0,0-27.62,13.48c-5.39,3.38-8.64,5.42-11.06,4.21-6.37-3.18-4.12-17.72-1-37.84,2.12-13.72,4.76-30.78,5.46-49.29,2.12-56.25-13.16-91.5-45.41-104.75-25.44-10.46-69.33-14.88-183.89,44.26-15.59,8-29.81,15.66-43.57,23-64.25,34.4-110.68,59.26-183.06,66.74v1h0C1032.63,210.2,1079.13,185.31,1143.48,150.85Z"/><path class="cls-3" d="M1068.72,286.9c28.87-12.29,57.73-29,88.25-51.14,3.92-2.84,8.21-6,12.83-9.4,46.54-34.24,124.43-91.55,162.24-76.66,44.06,17.34,32.07,78.61,10.3,189.85l-.71,3.67c-13,66.4-17,111-12.21,136.38,2.84,15.08,9,25.1,17.48,28.2a16.47,16.47,0,0,0,5.66,1c5,0,10-2.21,14.52-6.44,21.15-19.9,29.8-52.48,39-87l.59-2.22c13-48.8,28.75-88.95,41.17-104.78,13.16-16.76,32.51-22.93,51.19-27.81,4.61-1.2,9-2.31,13.26-3.37,29.79-7.47,51.31-12.86,72.41-35.1,10.65-11.24,20.08-22.44,29.19-33.28,31.59-37.56,58.87-70,117.43-78.79,20.07-3,39-3.09,57.28-3.17,24.63-.09,47.9-.18,71.61-7.31,13.23-4,21.56-9.94,25.46-18.22,4.34-9.25,2.85-21.54-3.81-31.33-5.15-7.57-12.9-13.65-24.38-19.12C1839,42.11,1819,38,1799.6,34l-75.88-15.58a111.72,111.72,0,0,1-30.91-11.24A24.34,24.34,0,0,1,1684.37,0h-1.18l.18.3a25.16,25.16,0,0,0,9,7.82,112.74,112.74,0,0,0,31.17,11.33L1799.42,35c19.33,4,39.31,8.07,57.64,16.81,11.32,5.4,18.94,11.37,24,18.78,6.44,9.48,7.9,21.35,3.72,30.24-3.76,8-11.9,13.81-24.86,17.7-23.58,7.09-46.79,7.18-71.36,7.27-18.32.08-37.27.15-57.4,3.18-58.9,8.85-86.29,41.41-118,79.12-9.1,10.83-18.52,22-29.15,33.23-20.91,22-42.32,27.41-72,34.83-4.25,1.07-8.66,2.17-13.27,3.38-18.84,4.92-38.36,11.15-51.7,28.15-12.51,15.93-28.35,56.23-41.36,105.16l-.59,2.22c-9.12,34.34-17.73,66.78-38.67,86.48-6,5.62-13,7.53-19.24,5.23-8.1-3-14.08-12.71-16.85-27.42-4.75-25.23-.75-69.7,12.21-136l.71-3.66c21.88-111.81,33.93-173.4-10.91-191-38.28-15.07-116.42,42.43-163.11,76.78-4.61,3.39-8.91,6.56-12.83,9.4-68,49.3-130.43,73.52-196.43,76.19v1h0C996.29,310.66,1032.87,302.17,1068.72,286.9Z"/><path class="cls-3" d="M1919.44,151.87c-22.63,3.55-60.74,3.09-109,2.5-8.78-.1-17.85-.21-27.15-.3-35.28-.31-68.51,7.53-91.18,21.58-19,11.78-36.25,29.66-52.92,46.94-16.15,16.74-32.84,34-51,45.54-18.81,11.92-40.42,16.65-61.32,21.22-28,6.13-54.47,11.92-72.77,33.9-19.26,23.13-29,61.38-39.36,101.89-4,15.57-8.09,31.68-12.78,46.79-9.32,30.06-28.47,71.27-47,91.88-11.45,12.71-23.17,19-33,17.67-6.92-.93-12.83-5.62-17.09-13.56-15-27.95.46-117.54,15.41-204.18.92-5.33,2.68-13.34,4.72-22.63,9.64-43.86,27.58-125.52,7.66-154.41a31.81,31.81,0,0,0-23.19-14.11c-28.64-3.49-70.73,24.71-98.08,49.92-2.62,2.41-5.24,4.86-7.89,7.32-33.21,30.92-70.84,66-139.55,79.8A541.62,541.62,0,0,0,960,341.7v1.13l.18-.08a540,540,0,0,1,104-32.1c69-13.88,106.7-49,140-80,2.65-2.46,5.28-4.91,7.9-7.32,27.19-25.08,69-53.14,97.34-49.68a30.93,30.93,0,0,1,22.54,13.7c19.64,28.51,1.77,109.85-7.84,153.55-2,9.3-3.8,17.33-4.73,22.68-15,86.82-30.46,176.61-15.29,204.89,4.41,8.23,10.57,13.1,17.8,14.07a20.63,20.63,0,0,0,2.73.18c9.53,0,20.45-6.35,31.08-18.15,18.67-20.72,37.91-62.11,47.26-92.28,4.7-15.14,8.81-31.26,12.79-46.85,10.31-40.38,20-78.52,39.15-101.46,18.09-21.73,44.4-27.49,72.25-33.58,21-4.59,42.67-9.33,61.61-21.35,18.21-11.54,35-28.9,51.13-45.68,16.63-17.24,33.83-35.07,52.73-46.79,22.53-14,55.62-21.77,90.7-21.44,9.3.09,18.37.2,27.15.3,48.26.58,86.39,1,109.08-2.51v-1Z"/><path class="cls-3" d="M1919.44,180.54c-31.69,5.1-62.77,6.07-95.67,7.11-12.64.39-25.71.81-39.09,1.46-35.33,1.74-64.4,9.86-86.42,24.13-19.94,12.92-34.57,27.13-48.72,40.87-16,15.51-31,30.16-50.69,38.75-16.08,7-34.67,10.63-52.64,14.11-33.36,6.47-67.84,13.16-86.06,42.18-12.27,19.55-22.08,51.51-34.51,92-6.16,20.09-13.15,42.86-21.36,67-10.39,30.55-27.11,66-44.72,95-28.12,46.16-52,65.83-73.13,60.14-40.81-11-17.83-135.14-9.18-181.86,1.09-5.87,1.94-10.5,2.43-13.59,3.94-24.92,10.92-54.38,18.3-85.57,13.8-58.32,28.08-118.61,23.3-153.9-2-14.91-9.09-25.6-19.91-30.1-18.07-7.51-44.13,2.82-73.39,29.09-14.65,13.15-25.78,26.53-36.55,39.47-17,20.46-33.12,39.78-59.88,53.32-17.71,8.95-41.47,11.68-64.44,14.31-15,1.72-29.28,3.35-42,6.6-29.09,7.45-53.23,22.62-65.14,31.1v1.22l.26-.16c11.81-8.43,36-23.68,65.1-31.15,12.64-3.23,26.83-4.86,41.85-6.58,23-2.64,46.89-5.37,64.75-14.4,26.93-13.63,43.08-33,60.18-53.57,10.75-12.91,21.86-26.26,36.45-39.36,29-26,54.7-36.29,72.43-28.92,10.48,4.36,17.34,14.76,19.31,29.28,4.75,35.08-9.5,95.27-23.28,153.49-7.39,31.21-14.37,60.7-18.31,85.66-.49,3.07-1.35,7.7-2.43,13.55-8.7,47-31.81,171.83,9.89,183.08a29,29,0,0,0,7.61,1c9.27,0,18.9-4.47,29.23-13.5,11.57-10.14,23.78-25.87,37.32-48.1,17.65-29,34.4-64.55,44.82-95.17,8.21-24.12,15.2-46.91,21.37-67,12.4-40.38,22.19-72.28,34.39-91.71,18-28.67,50.75-35,85.44-41.74,18-3.5,36.66-7.11,52.83-14.18,19.81-8.65,35-23.36,51-38.94,14.11-13.71,28.7-27.88,48.56-40.75,21.88-14.18,50.81-22.25,86-24,13.38-.66,26.44-1.07,39.08-1.46,32.9-1,64-2,95.71-7.11v-1.06Z"/><path class="cls-3" d="M1919.46,216.67c-69.58,7.18-92,8.37-111.76,9.43-6.07.32-11.81.62-18.55,1.09-24,1.66-39.86,3.05-62,10.59-27.15,9.23-41.68,24.12-68.07,51.16-3.76,3.86-7.77,8-12.08,12.33-26.89,27.22-59.52,29.82-91.07,32.33-36,2.87-70,5.58-88.14,46.79-10.31,23.4-17.46,49.27-25,76.66-12.44,45-26.53,96-58.74,152.57-41.82,73.49-78.17,103.73-114.43,95.21-48.21-11.35-31.17-108.22-22-160.27.86-4.88,1.67-9.48,2.33-13.49,2.54-15.38,8.24-38.42,14.84-65.08,14.59-59,32.76-132.42,33.5-186.56.33-24.08-7-43.14-19.28-49.73-7-3.77-18.83-5.31-35.49,8.74-13.78,11.61-24.39,29.09-35.63,47.59-19.81,32.6-40.29,66.31-80.65,72.15-15.43,2.23-29.71,2.45-43.51,2.67-37.73.58-73.36,1.14-123.69,42.79v1.3l.29-.23c50.23-41.69,85.78-42.24,123.41-42.82,13.83-.22,28.14-.44,43.62-2.68,40.8-5.9,61.4-39.81,81.33-72.61,11.19-18.43,21.77-35.83,35.42-47.34,12.88-10.86,24.8-13.85,34.47-8.63,11.9,6.41,19.08,25.11,18.75,48.78-.74,54-18.89,127.37-33.47,186.31-6.6,26.69-12.31,49.74-14.85,65.17-.66,4-1.47,8.6-2.33,13.48-9.22,52.39-26.38,149.91,22.74,161.47a50.62,50.62,0,0,0,11.71,1.37c16.38,0,33.16-7.92,50.05-23.65,17.09-15.92,34.65-39.93,53.69-73.4,32.28-56.72,46.39-107.77,58.85-152.81,7.56-27.35,14.7-53.18,25-76.51,17.91-40.67,51.64-43.35,87.35-46.2,31.72-2.53,64.52-5.14,91.66-32.61,4.31-4.37,8.32-8.47,12.08-12.33,26.28-26.94,40.76-41.77,67.69-50.93,22-7.5,37.84-8.89,61.78-10.54,6.73-.47,12.47-.77,18.54-1.1,19.77-1,42.19-2.24,111.76-9.43v-1Z"/><path class="cls-3" d="M1216.76,631.28c4-35.34,9-79.33,25.31-131.88.48-1.54,1-3.37,1.71-5.46,6.4-20.38,21.39-68.1,29.91-112.8,10.63-55.8,7.94-89.05-8-98.84-27.07-16.63-52.46,29.78-67.63,57.52-3.32,6.07-6.19,11.32-8.5,14.87-20.42,31.39-42.68,39.16-88.2,30.78-27.24-5-49.87-3.9-71.23,3.51-25.2,8.73-48.15,26.29-70.14,53.66v1.57l.36-.45c51.42-64.27,102.28-64.37,140.85-57.26,24.06,4.43,41.7,4.06,55.52-1.15,12.9-4.87,23.27-14.14,33.62-30.06,2.34-3.59,5.22-8.85,8.55-14.94,15-27.41,40.08-73.28,66.33-57.15,24.32,14.94,16.8,85.73-22.36,210.41-.65,2.09-1.23,3.92-1.71,5.46-16.35,52.64-21.34,96.69-25.35,132.08-4.93,43.51-8.49,75-29.66,95.75l-.48.41h1.48C1208.26,706.22,1211.84,674.75,1216.76,631.28Z"/><path class="cls-3" d="M1200.35,631.26c4.51-36.7,13.49-70.73,23-106.76,11.59-43.88,23.57-89.26,27.76-142.13,1-12.23,1.64-25.2-1.72-37.58-.93-3.43-3.78-11.5-10.12-12.26-7-.82-11.4,7.59-14.12,14-12.37,29.14-28,49.49-46.6,60.48-17.85,10.58-40.5,4.81-62.4-.77-6.38-1.63-12.41-3.16-18.27-4.28-58.07-11.13-81.2,13.39-108,41.77-11.83,12.55-27.31,32.61-29.91,36v1.69l.37-.55c.17-.22,17.36-22.76,30.21-36.39,26.59-28.18,49.55-52.52,107.13-41.49,5.84,1.12,11.85,2.65,18.22,4.27,22.08,5.63,44.91,11.44,63.08.68,18.74-11.11,34.56-31.62,47-61,2.59-6.11,6.78-14.16,13.14-13.39,5.77.68,8.43,8.28,9.31,11.51,3.31,12.21,2.65,25.07,1.69,37.2-4.19,52.77-16.15,98.1-27.73,141.94-9.52,36.06-18.51,70.13-23,106.9-6.17,50.27-20.3,78.9-47.26,95.74l-.7.45h1.88C1180.1,710.23,1194.19,681.44,1200.35,631.26Z"/><path class="cls-3" d="M1191.24,587c3.6-16.28,7.33-33.11,12-50.16q2.58-9.48,5-18.26c13.45-48.79,22.33-81,14.61-95.91-5.7-11-12.72-6.8-23.36-.43s-25.47,15.24-47.07,13.66c-11.18-.81-22.34-4.27-34.16-7.93-25.5-7.91-51.87-16.08-81.22,1.82-34.77,21.2-69.36,79.76-77,93.27v2.11l.41-.85c6.69-11.86,41.84-72.13,77.09-93.63,29-17.68,55.17-9.57,80.48-1.73,11.87,3.68,23.09,7.16,34.37,8,21.88,1.6,36.74-7.3,47.59-13.8,10.5-6.28,16.83-10.07,22.07,0,7.51,14.51-1.32,46.58-14.7,95.11q-2.43,8.79-5,18.26c-4.65,17.08-8.39,33.93-12,50.22-13.52,61.06-25.2,113.78-76.47,140.12l-1.16.48h2.43C1166.05,700.6,1177.73,647.91,1191.24,587Z"/><path class="cls-3" d="M1139.91,671.92c13.41-24.47,21.77-55.74,30.21-95.16,3.35-15.64,6.86-29.53,10-41.79,7.7-30.49,12.79-50.63,5.8-60.47-4.87-6.85-9.32-6.84-18.2-6.82-9.83,0-24.69.05-51.61-8.94-29.07-9.71-46.87-10.05-68-1.3-34.85,14.42-72.88,85.8-88,116.78v2.14l.42-.79c14.84-30.42,53.1-102.73,88-117.16,20.92-8.66,38.56-8.31,67.4,1.32,27,9,42,9,51.9,9,8.82,0,12.84,0,17.42,6.43,6.7,9.43,1.67,29.37-5.95,59.55-3.1,12.27-6.61,26.18-10,41.84-18,83.86-35.39,125.47-91.27,150.3l-1.16.48h2.56C1106.73,714.9,1126,697.28,1139.91,671.92Z"/><path class="cls-3" d="M1078.26.48l1.18-.48h-2.68c-31.13,12.94-95.82,9-116.64,5.2l-.12,0V6.23c10.08,1.84,30.23,3.69,51.93,3.69C1036,9.92,1062.06,7.63,1078.26.48Z"/><path class="cls-3" d="M1114.19.47l1-.47h-2.33C1056.43,28.77,978.1,19,960.12,14.81l-.12,0v1.07c8.36,1.94,29.37,5,55.13,5C1045.88,20.88,1083.39,16.48,1114.19.47Z"/><path class="cls-3" d="M1152.61.45l.77-.45h-1.93c-62.79,42.24-159.33,32.35-191.32,25l-.13,0V26c13.4,3.09,38,6.6,66.6,6.6C1067.08,32.58,1115.75,25.56,1152.61.45Z"/><path class="cls-3" d="M1186.76.38l.4-.38h-1.44C1118.5,67.66,996.08,46.41,960.11,38.27l-.11,0v1.06A401,401,0,0,0,1045.42,49C1093.23,49,1148.82,38.88,1186.76.38Z"/><path class="cls-3" d="M1768.6,724c-19-5.53-35.47-10.31-38.47-20-1.49-4.8.32-10.67,5.53-18a5.73,5.73,0,0,0,1.13-5.1c-1.74-6-14.55-10.21-28.11-14.71-16.21-5.39-33-11-31.22-19.36,2-9.35,12.7-14.86,25.14-21.23a164.15,164.15,0,0,0,19.51-11.18,225.39,225.39,0,0,0,27.13-22.26c9.19-8.57,17.13-16,36.7-26,59.27-30.21,106.43-88.51,131.76-119.83l1.81-2.22v-1.57l-2.53,3.11c-25.29,31.26-72.36,89.45-131.45,119.57-19.69,10-27.67,17.48-36.92,26.1a223,223,0,0,1-27,22.18,163.42,163.42,0,0,1-19.4,11.11c-12.66,6.49-23.6,12.1-25.66,21.94-2,9.33,15.24,15.05,31.87,20.58,12.73,4.23,25.89,8.61,27.48,14a4.63,4.63,0,0,1-1,4.14c-5.42,7.59-7.28,13.78-5.68,18.93,3.17,10.2,19,14.81,39.13,20.66,2.55.74,5.17,1.51,7.82,2.3H1780l-1.85-.5Q1773.27,725.36,1768.6,724Z"/><path class="cls-3" d="M1919.14,480.2l-4.63,6c-13,16.88-32.58,42.37-45.53,54.71-25.79,24.55-42.23,33.77-65,46.54-10.12,5.68-21.6,12.11-35.83,20.93-17.63,10.93-27.85,21.78-30.39,32.28a18.81,18.81,0,0,0,1.67,13.76c3.85,7,12.74,11.69,21.35,16.25s16.81,8.92,17.66,14.74c.43,3-1.08,6.26-4.63,10-2.56,2.68-3.53,5.45-2.88,8.24,1.75,7.56,15.65,15.3,42.45,23.66h3.74l-1.86-.5c-27.51-8.43-41.7-16.09-43.4-23.41-.57-2.44.29-4.81,2.62-7.24,3.79-4,5.39-7.53,4.9-10.89-.92-6.35-9.3-10.8-18.18-15.51-8.48-4.5-17.25-9.15-21-15.86a17.67,17.67,0,0,1-1.56-13c2.47-10.21,12.54-20.86,29.94-31.64,14.21-8.81,25.67-15.24,35.79-20.91,22.83-12.8,39.32-22,65.19-46.68,13-12.39,32.64-37.93,45.63-54.82l4.27-5.55V479.6Z"/><path class="cls-3" d="M1919.1,523.73C1903.18,552,1875.26,579.54,1848,594l-3.91,2.07c-11.88,6.26-26.65,14.06-42.33,24.11-10.23,6.55-15.58,12.77-16.37,19-1,7.65,4.8,14.18,10.92,21.1,7.68,8.68,15.63,17.66,10.06,29.38-2.46,5.19-2.81,9.73-1.06,13.87,4.44,10.49,22,17.15,47,23.78h4.54l-2.37-.5c-22.34-5.82-43.64-12.72-48.3-23.71-1.62-3.84-1.28-8.08,1-13,5.88-12.37-2.3-21.63-10.22-30.57-6-6.73-11.57-13.08-10.66-20.23.74-5.91,6-11.88,15.91-18.26,15.64-10,30.4-17.81,42.26-24.07l3.92-2.07c27.21-14.42,55-41.82,71.11-69.95v-1.92Z"/><path class="cls-3" d="M1919.09,575.08c-20.08,40.27-43.43,64.21-60.47,81.7-9.17,9.41-16.42,16.84-20.75,24.18-2.92,4.94-3.46,10-1.61,14.92,4.57,12.25,23.55,23.1,54.92,31.43h3.54l0-.14-1.41-.36c-40.7-10.5-53-22.83-56.19-31.32-1.73-4.63-1.22-9.33,1.53-14,4.27-7.24,11.47-14.63,20.6-24,17-17.41,40.17-41.21,60.23-81.12v-2.19Z"/><path class="cls-3" d="M1669.71,75.33c-15.6,3.27-29.33,5.23-35,5-7.66-.31-8.91-5.75-9.93-14-.39-3.13-1.56-5.07-3.49-5.79-3.93-1.46-9.89,2.85-13.8,7-7.93,8.41-15.74,26.87-19.43,45.92-1.73,8.9-10,53.61-3.74,59.94a2.49,2.49,0,0,0,1.81.78,3,3,0,0,0,.88-.13c5.14-1.58,10.57-8.2,18.09-17.35,9.23-11.24,21.87-26.64,41.23-41.61a135,135,0,0,1,55.93-25.68c2.64-.49,5.4-.87,8.07-1.24,7.94-1.09,14.8-2,17-5.48a4.87,4.87,0,0,0,.52-3.82C1725.57,69,1696.87,69.63,1669.71,75.33Zm56.8,6.73c-1.93,3.06-8.91,4-16.31,5-2.67.37-5.44.75-8.1,1.25a135.86,135.86,0,0,0-56.33,25.86c-19.44,15-32.13,30.48-41.38,41.76-7.42,9-12.77,15.54-17.64,17a1.6,1.6,0,0,1-1.77-.41c-4.28-4.32-1.06-32.73,4-59,3.65-18.88,11.35-37.12,19.17-45.4,4-4.24,9.52-8,12.81-6.75,1.55.58,2.51,2.24,2.85,4.95.88,7.16,1.8,14.56,10.85,14.93,5.73.24,19.55-1.74,35.21-5,30.66-6.43,55.17-5.25,57,2.73A3.75,3.75,0,0,1,1726.51,82.06Z"/><path class="cls-3" d="M1919.49,311.09c-32.21,1.3-79.51,17.94-112.57,52.18-10,10.38-19.66,22.3-29.86,34.93-27.16,33.62-55.25,68.39-96.27,81.84-75.83,24.85-95.06,46.7-120.86,90.64-14.35,24.44-22.63,48.51-29.93,69.74-7.22,21-13.45,39.09-23.78,53.66-6.24,8.81-12.18,12.35-17.66,10.55-12.18-4-19.19-32.41-20.74-58.75-.79-13.49-6.24-133.56,45-195.52,18.88-22.84,43.36-35.17,72.77-36.67,9.29-.47,17.86-.78,26.15-1.09,60.9-2.22,94.44-3.44,140.7-61.08,41.79-52.08,107.9-63.72,167.07-68.22v-1.05h0c-59.37,4.52-125.74,16.2-167.77,68.58-46,57.3-79.37,58.51-140,60.72-8.29.31-16.87.62-26.16,1.09-29.68,1.51-54.39,14-73.45,37-20,24.2-33.74,59.65-40.8,105.36a458.1,458.1,0,0,0-4.43,90.91c1.56,26.71,8.79,55.52,21.41,59.68a9.84,9.84,0,0,0,3.11.51c5,0,10.21-3.83,15.59-11.42,10.41-14.69,16.67-32.87,23.91-53.93s15.55-45.2,29.85-69.54c25.67-43.71,44.81-65.46,120.33-90.21,41.28-13.53,69.46-48.41,96.71-82.15,10.19-12.61,19.81-24.51,29.8-34.86,32.88-34,79.9-50.59,111.93-51.89v-1Z"/><path class="cls-3" d="M1919.45,252.35c-50.29,7-87.88,12.4-107.81,16.41-34.62,7-59.51,18.52-83.23,38.66-8.27,7-15.52,15.55-22.54,23.81-10,11.78-20.37,23.95-33.78,31.83-19.73,11.59-41.48,12.23-62.52,12.86-8.12.24-16.5.49-24.73,1.35-34.53,3.61-63.76,19.08-86.86,46-18.94,22-34,51.93-44.62,88.86-18.79,65-18.86,132.45-18.88,154.6v2.42c-.07,21.85.4,40.89,1.42,58.2h1v0c-1-17.29-1.49-36.32-1.43-58.15v-2.43c0-22.11.09-89.39,18.84-154.29,23.8-82.4,67.76-127.52,130.65-134.1,8.2-.86,16.57-1.1,24.66-1.34,21.16-.63,43-1.28,63-13,13.55-8,24-20.2,34-32,7-8.22,14.22-16.72,22.42-23.69,23.59-20,48.36-31.53,82.81-38.46,19.91-4,57.46-9.45,107.7-16.4v-1Z"/><path class="cls-3" d="M1919.33,341.78l-5.48,2.33c-17.09,7.24-38.36,16.24-64.89,35.47-17.38,12.59-31.64,29.61-46.73,47.62-13.33,15.92-27.12,32.37-44.22,47.21-18.43,16-38.61,26.82-60,38.27-41,21.94-83.31,44.63-120.17,106.84-16.67,28.14-30.32,53.93-41.66,107.68l0,.11h1c11.3-53.5,24.9-79.2,41.51-107.23,36.72-62,78.94-84.59,119.78-106.47,21.42-11.48,41.65-22.32,60.16-38.39,17.16-14.89,31-31.38,44.33-47.32,15-18,29.27-34.93,46.55-47.46,26.45-19.16,47.66-28.14,64.71-35.36l5.31-2.26V341.7Z"/><path class="cls-3" d="M1919.25,372.26c-15.24,10.88-52.13,45-106,105.32-33.73,37.8-63.56,52.13-95.14,67.29-15.35,7.38-31.23,15-48.36,25.64-38.27,23.77-65,47.72-84.1,75.38-18.83,27.24-28,55.16-35.11,81.29l0,.13h1c14.19-52.13,34-103.28,118.72-155.9,17.09-10.61,32.94-18.23,48.27-25.59,31.67-15.2,61.58-29.57,95.44-67.52,53.48-59.95,90.18-93.95,105.52-105v-1.24Z"/><path class="cls-3" d="M1919.22,403.88c-22.81,18.71-48.12,45.12-68.46,66.35-11.65,12.15-21.72,22.66-29.43,29.82-38.38,35.66-75.52,54.86-108.28,71.81-16.45,8.51-32,16.54-44.87,25.47-48.88,33.9-89.51,97.48-101.58,129.8l-.06.18h1c12.1-32.23,52.51-95.39,101.13-129.1,12.82-8.9,28.34-16.92,44.76-25.41,32.82-17,70-36.21,108.49-72,7.74-7.19,17.81-17.7,29.47-29.86,20.24-21.12,45.39-47.36,68.09-66v-1.31Z"/><path class="cls-3" d="M1451.2,100.39c9.78,39.11,19.39,58,31.14,61.15a19.91,19.91,0,0,0,5.23.73c11.68,0,20.39-11.82,26.53-35.9,3.92-15.37,6.94-34.21,10.45-56,3.36-20.87,7.16-44.53,12.57-70.17l.08-.18h-1c-5.41,25.65-9.21,49.3-12.56,70.17-3.51,21.79-6.53,40.6-10.44,55.92-6.85,26.9-16.85,38.16-30.6,34.44-11.22-3-20.9-22.23-30.45-60.41A518.13,518.13,0,0,1,1436.86,0h-1V0A519.37,519.37,0,0,0,1451.2,100.39Z"/><path class="cls-3" d="M1152,93.43c75.51-28.94,146.83-56.28,206.87-56.55,30.56-.14,50.61,12.78,65,41.88,9.22,18.69,15.37,39.07,21.31,58.78,8.6,28.53,16.73,55.49,32.72,68.25,5.05,4,10.55,6.13,15.86,6.13a19.23,19.23,0,0,0,4.28-.47,20.41,20.41,0,0,0,13.5-10.67c10.69-19.93,19.66-78.39,27.58-130,4.7-30.64,8.76-57.11,12.45-70.66V0h-1c-3.7,13.66-7.75,40.07-12.44,70.64-7.9,51.49-16.85,109.85-27.46,129.62a19.46,19.46,0,0,1-12.86,10.17c-6.3,1.42-13.18-.53-19.38-5.48-15.74-12.56-23.45-38.13-32.38-67.74-6-19.75-12.11-40.17-21.38-58.94-14.47-29.33-34.64-42.43-65.34-42.43h-.49c-60.2.27-131.59,27.64-207.18,56.61C1088,116.86,1022.14,142.1,960,151.86v1h.07C1022.33,143.13,1088.23,117.87,1152,93.43Z"/><path class="cls-3" d="M1122.5,130.14c5-2,12.23-5.21,21.43-9.24,49.14-21.56,151.39-66.41,208.83-66.71h.59c28.81,0,47.19,10.93,57.83,34.35,11.31,24.91,18.45,48.33,24.75,69,4.59,15.06,8.56,28.07,13.31,39,9.83,22.69,26.55,36.72,42.29,36.72a25.4,25.4,0,0,0,9.07-1.66c19.27-7.29,28-32.19,35.26-67.34,1.54-7.53,3.43-20.25,5.81-36.36,5.73-38.66,14.39-97.07,25.81-127.68l.14-.23h-1.09c-11.43,30.75-20.08,89.11-25.8,127.75-2.29,15.45-4.27,28.79-5.81,36.29-7.15,34.81-15.78,59.46-34.63,66.59-17.53,6.64-38.64-7.88-50.19-34.52-4.72-10.9-8.68-23.88-13.26-38.9-6.31-20.7-13.46-44.16-24.8-69.13-10.74-23.65-30.18-35.07-59.28-34.92-57.63.29-160,45.19-209.19,66.77-9.19,4-16.45,7.22-21.4,9.24-57.27,23.32-102.5,41.75-162.17,51.36v1.05h.07C1019.87,172,1065.16,153.5,1122.5,130.14Z"/><path class="cls-3" d="M1604.43,445.07c-23.37,2.31-46.43,12.25-61.68,26.59-34.34,32.26-48.78,84.63-47.85,122.21.26,10.51,2.69,17.17,6.5,17.83a4.46,4.46,0,0,0,.63,0c3.94,0,8.21-6.2,11.83-17.22,5.1-15.5,18.63-56.67,47.76-85.87,16-16,34.65-23.87,49.66-30.18,13.33-5.61,23.86-10,27.52-18a7.3,7.3,0,0,0-.18-7.31C1634,445.8,1615.46,444,1604.43,445.07Zm33.51,15c-3.49,7.58-13.87,11.94-27,17.47-15.08,6.35-33.86,14.24-50,30.39-29.31,29.37-42.89,70.71-48,86.28-3.59,10.94-7.86,17.09-11.41,16.49-3.27-.56-5.45-7-5.69-16.83-.92-37.34,13.41-89.36,47.52-121.4,15.11-14.2,38-24,61.14-26.34,1.89-.18,4-.28,6.16-.28,10.7,0,23.61,2.36,27.14,8A6.17,6.17,0,0,1,1637.94,460Z"/><path class="cls-3" d="M1895.32,0h-4l1.82.51c8,2.06,16.83,4,26.27,5.71l.12,0V5.19C1910.85,3.6,1902.73,1.86,1895.32,0Z"/><path class="cls-3" d="M1031,701.76l.22-.16c35.47-25.28,89.07-63.48,113.76-143.49,4.86-15.74,4.29-28.75-1.69-38.67-7.47-12.42-23.1-19.91-46.47-22.27-34.81-3.52-46.79,9.39-65,32.53-10.72,13.63-19,29.87-27.07,45.57-7.09,13.84-14.41,28.16-23.5,41.06-6.32,9-12.82,16.71-19.11,24.18L960,643v1.58l.36-.46,2.45-2.93C969.11,633.72,975.62,626,982,617c9.13-13,16.48-27.31,23.58-41.19,8.38-16.38,16.3-31.85,27-45.4,18-22.87,29.84-35.64,64.18-32.17,23,2.33,38.44,9.67,45.75,21.8,5.81,9.65,6.34,22.36,1.58,37.78-24.58,79.67-78,117.75-113.37,143l-.23.16C1016,711.2,982.61,722.51,960.15,716l-.15,0V717a54.78,54.78,0,0,0,15,1.92C995.67,718.94,1019.34,710,1031,701.76Z"/><path class="cls-3" d="M1007.15,694.33a11.9,11.9,0,0,1-3.33-.45c-3-.87-5.27-3-6.74-6.38-4.75-10.84,6.12-27,13.31-37.77,1.11-1.66,2.17-3.23,3-4.56,18.36-29,27.23-51.18,35.05-70.73,4.45-11.14,8.67-21.67,14-31.68,4-7.45,9.33-12.26,15.44-13.9,5.47-1.47,11.36-.23,17,3.6h0c11.88,8,15.43,25.6,14.86,38.22-.66,14.61-7.57,27.84-14.25,38.86a271.52,271.52,0,0,1-68.72,76.25C1023.15,688.56,1014.54,694.33,1007.15,694.33Zm75.33-165a16.59,16.59,0,0,0-4.32.57c-5.85,1.57-11,6.21-14.84,13.41-5.35,10-9.55,20.46-14,31.58-7.84,19.59-16.72,41.8-35.14,70.89-.85,1.35-1.91,2.92-3,4.59-7,10.53-17.72,26.43-13.22,36.72a9.64,9.64,0,0,0,6.13,5.82c7.56,2.19,18.07-4.83,22.23-7.94a270.7,270.7,0,0,0,68.47-76c6.61-10.9,13.45-24,14.09-38.34.56-12.34-2.88-29.51-14.41-37.29A21.42,21.42,0,0,0,1082.48,529.3Z"/><path class="cls-3" d="M1919.51,717c-9.81-3-25.6-12.45-29-26.26-2-8.26.81-16.65,8.38-24.93l4.21-4.61c5.4-5.88,10.92-11.91,16.38-18.2v1.58c-5.47,6.3-10.29,11.46-15.7,17.36l-4.21,4.6c-7.31,8-10,16.06-8.13,23.94,3.24,13.29,18.8,22.62,28,25.44Z"/></g></g></g></svg>