<?xml version="1.0" encoding="utf-8"?>
<!-- Generator: Adobe Illustrator 25.3.1, SVG Export Plug-In . SVG Version: 6.00 Build 0)  -->
<svg version="1.1" id="Layer_1" xmlns="http://www.w3.org/2000/svg" xmlns:xlink="http://www.w3.org/1999/xlink" x="0px" y="0px"
	 viewBox="0 0 244.8 72" style="enable-background:new 0 0 244.8 72;" xml:space="preserve">
<style type="text/css">
	.st0{fill:#FFFFFF;}
</style>
<g>
	<g>
		<path class="st0" d="M75.7,27.8c-2,2.1-4.1,4.3-6.2,6.8s-3.4,3.7-3.7,3.7c-0.1,0-0.2,0-0.3-0.1c-0.1-0.1-0.1-0.1-0.1-0.2
			c0-0.4,2.1-2.9,6.2-7.4c1.7-1.8,3-3.3,4-4.3c0.5-1.1,0.9-1.9,1.5-2.4c0.6-0.6,1.1-0.8,1.8-0.8c0.5,0,0.9,0.1,1.2,0.4
			s0.4,0.6,0.4,1.1c0,0.4-0.1,0.8-0.4,1.1s-0.7,0.6-1.2,0.9c-0.1,0-0.3,0.1-0.6,0.2c-0.9,0.3-1.4,1.2-1.4,2.7c0,1,0.3,2.5,0.7,4.6
			c0.5,2.1,0.7,3.7,0.7,4.7c0,0.8-0.1,1.6-0.3,2.4s-0.4,1.5-0.8,2.3c1.2-1.2,2.5-2.6,3.9-4.1s2.1-2.3,2.4-2.3c0.1,0,0.3,0,0.3,0.1
			c0.1,0.1,0.1,0.2,0.1,0.3c0,0.3-0.3,0.6-0.7,1.2c-0.5,0.6-1.3,1.4-2.4,2.6c-2.7,2.8-4.9,4.7-6.7,5.8c-1.8,1.1-3.5,1.6-5.3,1.6
			c-1.6,0-2.9-0.3-3.9-1.1s-1.5-1.8-1.5-3c0-0.7,0.3-1.3,0.7-1.8c0.5-0.5,1-0.8,1.7-0.8c0.5,0,0.8,0.2,1.2,0.4
			c0.3,0.3,0.5,0.6,0.5,1.1c0,0.3-0.2,0.8-0.5,1.4c-0.3,0.7-0.5,1.2-0.5,1.6c0,0.3,0.1,0.5,0.3,0.6c0.2,0.2,0.5,0.3,0.9,0.3
			c1.8,0,3.6-1.6,5.3-4.9s2.6-7.1,2.6-11.6c0-0.3,0-0.7,0-1.1C75.7,29.2,75.7,28.6,75.7,27.8z"/>
		<path class="st0" d="M104.2,31.3l3.2-4.7l5.2-0.3l-8.7,13.6c-1.3,2-2.1,3.4-2.4,4.2s-0.5,1.4-0.5,2c0,0.4,0.1,0.8,0.3,0.9
			c0.2,0.2,0.5,0.3,0.9,0.3c0.7,0,1.7-0.6,3.1-1.7s3.2-2.8,5.4-5c0.6-0.6,1.3-1.4,2.1-2.3c0.8-0.9,1.3-1.3,1.5-1.3
			c0.1,0,0.3,0,0.3,0.1c0.1,0,0.1,0.1,0.1,0.3c0,0.3-0.3,0.8-0.9,1.5s-1.5,1.7-2.7,2.9c-2.8,2.9-4.8,4.7-6.1,5.5
			c-1.3,0.9-2.5,1.3-3.7,1.3c-1,0-1.8-0.3-2.4-1s-0.8-1.6-0.8-2.9c0-0.3,0-0.7,0.1-1.2c0-0.4,0.2-1,0.3-1.8c-1.8,2.3-3.5,4-5.2,5.2
			s-3.3,1.8-4.7,1.8c-1.4,0-2.5-0.7-3.3-2.1c-0.8-1.4-1.2-3.4-1.2-5.9c0-0.6,0-1.2,0.1-1.8s0.2-1.2,0.3-1.8
			c-0.3,0.5-0.6,0.9-0.9,1.2s-0.5,0.4-0.7,0.4s-0.3,0-0.3-0.1c-0.1,0-0.1-0.1-0.1-0.3s0.3-0.7,1-1.5s1.5-1.8,2.7-2.9
			c2.4-2.4,4.9-4.4,7.4-5.7c2.4-1.3,4.7-2,6.8-2c1.3,0,2.3,0.3,3,1c0.8,0.7,1.2,1.5,1.2,2.7c0,0.3,0,0.5-0.1,0.8
			C104.4,30.6,104.3,30.9,104.2,31.3z M87.4,44.7c0,0.8,0.2,1.3,0.5,1.8c0.3,0.4,0.8,0.6,1.4,0.6c0.9,0,1.9-0.4,3.3-1.3
			c1.3-0.9,2.7-2.1,4-3.7c2.1-2.4,3.8-4.6,4.9-6.8c1.2-2.2,1.8-4.1,1.8-5.8c0-0.7-0.3-1.3-0.8-1.8s-1.1-0.7-1.8-0.7
			c-1.3,0-2.7,0.6-4.2,1.7c-1.5,1.1-3,2.7-4.5,4.7c-1.4,2-2.6,4-3.4,6.1S87.4,43.2,87.4,44.7z"/>
		<path class="st0" d="M121,30.8c-1.4,1.5-2.9,3-4.4,4.9c-1.5,1.8-2.4,2.7-2.7,2.7c-0.1,0-0.2,0-0.3-0.1c-0.1-0.1-0.1-0.1-0.1-0.2
			c0-0.2,0.1-0.5,0.3-0.8c0.3-0.3,0.7-0.9,1.4-1.8l2.5-2.7c1.6-1.7,3-3.3,4.3-4.9c1.3-1.5,2.1-2.5,2.5-3L140,0.8l5.1-0.7L121,38.5
			c-1.7,2.6-2.7,4.4-3.2,5.3c-0.4,0.9-0.7,1.6-0.7,2.1c0,0.4,0.1,0.8,0.4,1.1s0.6,0.4,1,0.4c0.9,0,2-0.4,3.2-1.2s3.3-2.7,6.2-5.7
			c0.6-0.6,1.3-1.3,2.1-2.3c0.8-0.9,1.3-1.3,1.5-1.3c0.1,0,0.3,0,0.3,0.1c0.1,0.1,0.1,0.2,0.1,0.3c0,0.3-0.2,0.6-0.6,1.2
			c-0.4,0.6-1.4,1.6-3,3.2c-2.7,2.7-4.6,4.5-6,5.5c-1.3,0.9-2.6,1.4-3.6,1.4c-1.3,0-2.3-0.4-3.1-1.3c-0.8-0.9-1.2-2.1-1.2-3.6
			c0-2.1,1.9-6,5.7-11.7L121,30.8z"/>
		<path class="st0" d="M138.5,30.8c-1.4,1.4-2.9,3-4.5,4.8c-1.5,1.8-2.4,2.6-2.7,2.6c-0.1,0-0.2,0-0.3,0c0,0-0.1-0.1-0.1-0.2
			c0-0.3,0.9-1.5,2.6-3.5c1.8-2,4.2-4.6,7.4-7.9l5.6-0.4l-7.8,12.3c-1.7,2.6-2.7,4.4-3.2,5.3c-0.4,0.9-0.7,1.6-0.7,2.1
			c0,0.4,0.1,0.7,0.4,1c0.3,0.3,0.6,0.5,0.9,0.5c1,0,2.2-0.5,3.6-1.5c1.4-1,3.3-2.8,5.6-5.3c0.4-0.5,1-1.1,1.7-1.8
			c1-1.2,1.7-1.8,1.9-1.8c0.1,0,0.3,0,0.3,0.1c0.1,0.1,0.1,0.2,0.1,0.3c0,0.3-0.2,0.6-0.6,1.2c-0.4,0.6-1.4,1.6-3,3.2
			c-2.6,2.7-4.6,4.5-6,5.5c-1.3,0.9-2.6,1.4-3.6,1.4c-1.3,0-2.3-0.4-3.1-1.3c-0.8-0.9-1.2-2.1-1.2-3.6c0-2,1.8-5.8,5.5-11.3
			C138,31.6,138.2,31.1,138.5,30.8z M148.1,13.8c0-0.8,0.3-1.6,1-2.4c0.7-0.8,1.4-1.2,2.2-1.2c0.6,0,1.2,0.2,1.5,0.6
			c0.4,0.4,0.6,0.9,0.6,1.6c0,0.9-0.3,1.7-0.9,2.4c-0.6,0.8-1.3,1.2-2.1,1.2c-0.6,0-1.2-0.2-1.6-0.6
			C148.4,15.1,148.1,14.5,148.1,13.8z"/>
		<path class="st0" d="M149.9,48.2l10.3-15.3c0.1-0.2,0.3-0.4,0.5-0.7c1.3-2,2-3.3,2-4c0-0.3-0.1-0.6-0.3-0.8s-0.4-0.3-0.8-0.3
			c-0.8,0-1.9,0.6-3.3,1.6c-1.3,1.1-3.3,3-6,5.8c-0.6,0.6-1.2,1.3-1.9,2.2c-0.9,1.1-1.5,1.7-1.8,1.7c-0.1,0-0.2,0-0.3-0.1
			s-0.1-0.1-0.1-0.2c0-0.2,0.1-0.5,0.3-0.8c0.3-0.3,0.7-0.9,1.4-1.8l2.5-2.7c2.5-2.7,4.5-4.5,5.8-5.5s2.4-1.4,3.6-1.4
			c0.9,0,1.7,0.3,2.3,1s0.8,1.6,0.8,2.7c0,1.2-0.3,2.4-0.8,3.8c-0.5,1.3-1.3,2.9-2.4,4.7c4-4.5,7.1-7.6,9.2-9.4
			c2.1-1.8,3.9-2.7,5.1-2.7c0.9,0,1.6,0.3,2.1,1c0.6,0.7,0.8,1.6,0.8,2.8c0,2-1.3,4.7-3.9,8.2c-0.4,0.6-0.8,1-0.9,1.3
			c-1.4,1.9-2.4,3.4-2.9,4.3c-0.5,0.9-0.8,1.7-0.8,2.3c0,0.5,0.1,0.8,0.3,1.1s0.5,0.3,0.9,0.3c0.7,0,1.8-0.6,3.2-1.8
			c1.5-1.2,3.2-2.8,5.3-5c0.6-0.6,1.3-1.4,2.1-2.3c0.8-0.9,1.3-1.4,1.5-1.4c0.1,0,0.3,0,0.3,0.1c0.1,0.1,0.2,0.2,0.2,0.3
			c0,0.4-1.2,1.8-3.4,4.1l-0.5,0.5c-2.2,2.2-4,3.9-5.5,5s-2.6,1.6-3.3,1.6c-1.1,0-2-0.5-2.7-1.5s-1-2.4-1-4c0-1.2,0.3-2.4,0.9-3.8
			s2-3.3,4.1-5.9c0.3-0.3,0.7-0.8,1.2-1.5c1.5-1.8,2.3-3.1,2.3-3.7c0-0.3-0.1-0.6-0.2-0.7c-0.1-0.1-0.3-0.2-0.7-0.2
			c-1.2,0-3.7,1.8-7.3,5.5s-7.9,8.7-12.9,15L149.9,48.2z"/>
	</g>
	<g>
		<path class="st0" d="M52.4,56.3v11.9h-1.9l0.1-1.3h-0.1c-0.4,1-1.2,1.5-2.5,1.5s-2.2-0.3-2.6-0.9c-0.4-0.6-0.6-1.8-0.6-3.7
			c0-1.5,0.3-2.5,0.7-3.1c0.5-0.6,1.3-0.9,2.4-0.9c1.3,0,2.2,0.4,2.5,1.3l0,0v-4.8H52.4L52.4,56.3z M48.4,61.4
			c-0.8,0-1.2,0.2-1.5,0.5s-0.3,1-0.3,2.1c0,1.2,0.1,2,0.3,2.4c0.3,0.3,0.7,0.5,1.5,0.5s1.3-0.2,1.5-0.5c0.3-0.3,0.3-1.2,0.3-2.4
			c0-1-0.1-1.7-0.3-2C49.7,61.5,49.2,61.4,48.4,61.4z"/>
		<path class="st0" d="M70.5,65.6h2v0.3c0,1.6-1.2,2.4-3.7,2.4c-1.7,0-2.7-0.3-3.3-0.8c-0.5-0.6-0.8-1.8-0.8-3.6
			c0-1.6,0.3-2.7,0.8-3.3c0.6-0.6,1.6-0.8,3.1-0.8s2.5,0.3,3,0.8s0.8,1.6,0.8,3.2v0.6h-5.6c0,0.2,0,0.3,0,0.3c0,0.8,0.1,1.4,0.4,1.7
			s0.8,0.4,1.5,0.4c0.8,0,1.2-0.1,1.4-0.3C70.4,66.4,70.5,66.1,70.5,65.6z M70.5,63.2v-0.3c0-0.7-0.1-1.1-0.3-1.3
			c-0.3-0.2-0.7-0.3-1.5-0.3s-1.2,0.1-1.5,0.3s-0.3,0.8-0.3,1.6H70.5L70.5,63.2z"/>
		<path class="st0" d="M85,59.9h2l-0.1,1.4l0,0c0.4-1,1.3-1.5,2.6-1.5c2,0,3,0.9,3,2.8v5.7h-2v-5V63v-0.6c-0.1-0.6-0.6-0.9-1.5-0.9
			c-1.3,0-2,0.6-2,1.9v5h-2V59.9L85,59.9z"/>
		<path class="st0" d="M110.7,59.9v1.5h-3.2v4.2c0,0.8,0.3,1.2,0.9,1.2s1-0.5,1-1.4V65h1.7v0.4c0,0.4,0,0.7,0,1
			c-0.1,1.3-1.1,1.9-2.9,1.9s-2.7-0.8-2.7-2.4v-4.5h-1.1v-1.5h1.1v-1.8h2v1.8H110.7L110.7,59.9z"/>
		<path class="st0" d="M124.9,56.3V58h-2v-1.7H124.9z M124.9,59.9v8.4h-2v-8.4H124.9z"/>
		<path class="st0" d="M144.6,62.1h-2c0-0.1,0-0.1,0-0.2c0-0.4-0.2-0.7-0.3-0.8c-0.2-0.1-0.6-0.2-1.4-0.2c-1,0-1.6,0.3-1.6,1
			c0,0.5,0.1,0.8,0.3,0.8c0.2,0.1,0.8,0.2,1.8,0.2c1.4,0.1,2.4,0.3,2.8,0.6s0.6,0.9,0.6,1.9s-0.3,1.8-0.9,2.1
			c-0.6,0.4-1.6,0.6-3.1,0.6c-1.4,0-2.4-0.2-2.9-0.5s-0.8-1-0.8-2v-0.2h2.1c0,0.1,0,0.2,0,0.3c-0.1,0.8,0.5,1.1,1.7,1.1
			c1.3,0,1.9-0.3,1.9-1.1c0-0.7-0.4-1.1-1.2-1.1c-1.8,0-3-0.2-3.5-0.5c-0.6-0.3-0.9-1-0.9-2.1c0-0.9,0.3-1.6,0.8-1.9
			c0.5-0.3,1.5-0.5,3-0.5c1.4,0,2.4,0.2,2.8,0.5C144.4,60.5,144.6,61.2,144.6,62.1z"/>
		<path class="st0" d="M162.7,59.9v1.5h-3.2v4.2c0,0.8,0.3,1.2,0.9,1.2c0.6,0,0.9-0.5,0.9-1.4V65h1.7v0.4c0,0.4,0,0.7,0,1
			c-0.1,1.3-1.1,1.9-2.9,1.9s-2.7-0.8-2.7-2.4v-4.5h-1.1v-1.5h1.1v-1.8h2v1.8H162.7L162.7,59.9z"/>
		<path class="st0" d="M174.9,59.9h2l-0.1,1.2l0,0c0.5-0.9,1.2-1.3,2.3-1.3c1.5,0,2.2,0.9,2.2,2.8v0.6h-1.9c0-0.3,0-0.3,0-0.4
			c0-0.9-0.3-1.3-1-1.3c-1,0-1.5,0.7-1.5,2v4.9h-2V59.9L174.9,59.9z"/>
		<path class="st0" d="M200.1,59.9l-2.2,8.9c-0.3,1.3-0.7,2.1-1.2,2.5s-1.2,0.6-2.2,0.6c-0.3,0-0.5,0-0.7,0v-1.5c0.2,0,0.3,0,0.4,0
			c0.8,0,1.4-0.8,1.6-2.2h-1l-2.7-8.4h2.1l1,3.5l0.5,1.8c0,0.1,0.1,0.4,0.3,0.9l0.3,0.9l0,0l0.2-0.9c0.1-0.5,0.2-0.8,0.2-0.9
			l0.4-1.8l0.8-3.5L200.1,59.9L200.1,59.9z"/>
	</g>
	<rect x="44.6" y="51.6" class="st0" width="155.6" height="1.1"/>
</g>
</svg>
