<svg width="245" height="72" viewBox="0 0 245 72" fill="none" xmlns="http://www.w3.org/2000/svg">
<path d="M75.7 27.8C73.7 29.9 71.6 32.1 69.5 34.6C67.4 37.1 66.1 38.3 65.8 38.3C65.7 38.3 65.6 38.3 65.5 38.2C65.4 38.1 65.4 38.1 65.4 38C65.4 37.6 67.5 35.1 71.6 30.6C73.3 28.8 74.6 27.3 75.6 26.3C76.1 25.2 76.5 24.4 77.1 23.9C77.7 23.3 78.2 23.1 78.9 23.1C79.4 23.1 79.8 23.2 80.1 23.5C80.4 23.8 80.5 24.1 80.5 24.6C80.5 25 80.4 25.4 80.1 25.7C79.8 26 79.4 26.3 78.9 26.6C78.8 26.6 78.6 26.7 78.3 26.8C77.4 27.1 76.9 28 76.9 29.5C76.9 30.5 77.2 32 77.6 34.1C78.1 36.2 78.3 37.8 78.3 38.8C78.3 39.6 78.2 40.4 78 41.2C77.8 42 77.6 42.7 77.2 43.5C78.4 42.3 79.7 40.9 81.1 39.4C82.5 37.9 83.2 37.1 83.5 37.1C83.6 37.1 83.8 37.1 83.8 37.2C83.9 37.3 83.9 37.4 83.9 37.5C83.9 37.8 83.6 38.1 83.2 38.7C82.7 39.3 81.9 40.1 80.8 41.3C78.1 44.1 75.9 46 74.1 47.1C72.3 48.2 70.6 48.7 68.8 48.7C67.2 48.7 65.9 48.4 64.9 47.6C63.9 46.8 63.4 45.8 63.4 44.6C63.4 43.9 63.7 43.3 64.1 42.8C64.6 42.3 65.1 42 65.8 42C66.3 42 66.6 42.2 67 42.4C67.3 42.7 67.5 43 67.5 43.5C67.5 43.8 67.3 44.3 67 44.9C66.7 45.6 66.5 46.1 66.5 46.5C66.5 46.8 66.6 47 66.8 47.1C67 47.3 67.3 47.4 67.7 47.4C69.5 47.4 71.3 45.8 73 42.5C74.7 39.2 75.6 35.4 75.6 30.9C75.6 30.6 75.6 30.2 75.6 29.8C75.7 29.2 75.7 28.6 75.7 27.8Z" fill="black"/>
<path d="M104.2 31.3L107.4 26.6L112.6 26.3L103.9 39.9C102.6 41.9 101.8 43.3 101.5 44.1C101.2 44.9 101 45.5 101 46.1C101 46.5 101.1 46.9 101.3 47C101.5 47.2 101.8 47.3 102.2 47.3C102.9 47.3 103.9 46.7 105.3 45.6C106.7 44.5 108.5 42.8 110.7 40.6C111.3 40 112 39.2 112.8 38.3C113.6 37.4 114.1 37 114.3 37C114.4 37 114.6 37 114.6 37.1C114.7 37.1 114.7 37.2 114.7 37.4C114.7 37.7 114.4 38.2 113.8 38.9C113.2 39.6 112.3 40.6 111.1 41.8C108.3 44.7 106.3 46.5 105 47.3C103.7 48.2 102.5 48.6 101.3 48.6C100.3 48.6 99.5 48.3 98.9 47.6C98.3 46.9 98.1 46 98.1 44.7C98.1 44.4 98.1 44 98.2 43.5C98.2 43.1 98.4 42.5 98.5 41.7C96.7 44 95 45.7 93.3 46.9C91.6 48.1 90 48.7 88.6 48.7C87.2 48.7 86.1 48 85.3 46.6C84.5 45.2 84.1 43.2 84.1 40.7C84.1 40.1 84.1 39.5 84.2 38.9C84.3 38.3 84.4 37.7 84.5 37.1C84.2 37.6 83.9 38 83.6 38.3C83.3 38.6 83.1 38.7 82.9 38.7C82.7 38.7 82.6 38.7 82.6 38.6C82.5 38.6 82.5 38.5 82.5 38.3C82.5 38.1 82.8 37.6 83.5 36.8C84.2 36 85 35 86.2 33.9C88.6 31.5 91.1 29.5 93.6 28.2C96 26.9 98.3 26.2 100.4 26.2C101.7 26.2 102.7 26.5 103.4 27.2C104.2 27.9 104.6 28.7 104.6 29.9C104.6 30.2 104.6 30.4 104.5 30.7C104.4 30.6 104.3 30.9 104.2 31.3ZM87.4 44.7C87.4 45.5 87.6 46 87.9 46.5C88.2 46.9 88.7 47.1 89.3 47.1C90.2 47.1 91.2 46.7 92.6 45.8C93.9 44.9 95.3 43.7 96.6 42.1C98.7 39.7 100.4 37.5 101.5 35.3C102.7 33.1 103.3 31.2 103.3 29.5C103.3 28.8 103 28.2 102.5 27.7C102 27.2 101.4 27 100.7 27C99.4 27 98 27.6 96.5 28.7C95 29.8 93.5 31.4 92 33.4C90.6 35.4 89.4 37.4 88.6 39.5C87.8 41.6 87.4 43.2 87.4 44.7Z" fill="black"/>
<path d="M121 30.8C119.6 32.3 118.1 33.8 116.6 35.7C115.1 37.5 114.2 38.4 113.9 38.4C113.8 38.4 113.7 38.4 113.6 38.3C113.5 38.2 113.5 38.2 113.5 38.1C113.5 37.9 113.6 37.6 113.8 37.3C114.1 37 114.5 36.4 115.2 35.5L117.7 32.8C119.3 31.1 120.7 29.5 122 27.9C123.3 26.4 124.1 25.4 124.5 24.9L140 0.8L145.1 0.1L121 38.5C119.3 41.1 118.3 42.9 117.8 43.8C117.4 44.7 117.1 45.4 117.1 45.9C117.1 46.3 117.2 46.7 117.5 47C117.8 47.3 118.1 47.4 118.5 47.4C119.4 47.4 120.5 47 121.7 46.2C122.9 45.4 125 43.5 127.9 40.5C128.5 39.9 129.2 39.2 130 38.2C130.8 37.3 131.3 36.9 131.5 36.9C131.6 36.9 131.8 36.9 131.8 37C131.9 37.1 131.9 37.2 131.9 37.3C131.9 37.6 131.7 37.9 131.3 38.5C130.9 39.1 129.9 40.1 128.3 41.7C125.6 44.4 123.7 46.2 122.3 47.2C121 48.1 119.7 48.6 118.7 48.6C117.4 48.6 116.4 48.2 115.6 47.3C114.8 46.4 114.4 45.2 114.4 43.7C114.4 41.6 116.3 37.7 120.1 32L121 30.8Z" fill="black"/>
<path d="M138.5 30.8C137.1 32.2 135.6 33.8 134 35.6C132.5 37.4 131.6 38.2 131.3 38.2C131.2 38.2 131.1 38.2 131 38.2C131 38.2 130.9 38.1 130.9 38C130.9 37.7 131.8 36.5 133.5 34.5C135.3 32.5 137.7 29.9 140.9 26.6L146.5 26.2L138.7 38.5C137 41.1 136 42.9 135.5 43.8C135.1 44.7 134.8 45.4 134.8 45.9C134.8 46.3 134.9 46.6 135.2 46.9C135.5 47.2 135.8 47.4 136.1 47.4C137.1 47.4 138.3 46.9 139.7 45.9C141.1 44.9 143 43.1 145.3 40.6C145.7 40.1 146.3 39.5 147 38.8C148 37.6 148.7 37 148.9 37C149 37 149.2 37 149.2 37.1C149.3 37.2 149.3 37.3 149.3 37.4C149.3 37.7 149.1 38 148.7 38.6C148.3 39.2 147.3 40.2 145.7 41.8C143.1 44.5 141.1 46.3 139.7 47.3C138.4 48.2 137.1 48.7 136.1 48.7C134.8 48.7 133.8 48.3 133 47.4C132.2 46.5 131.8 45.3 131.8 43.8C131.8 41.8 133.6 38 137.3 32.5C138 31.6 138.2 31.1 138.5 30.8ZM148.1 13.8C148.1 13 148.4 12.2 149.1 11.4C149.8 10.6 150.5 10.2 151.3 10.2C151.9 10.2 152.5 10.4 152.8 10.8C153.2 11.2 153.4 11.7 153.4 12.4C153.4 13.3 153.1 14.1 152.5 14.8C151.9 15.6 151.2 16 150.4 16C149.8 16 149.2 15.8 148.8 15.4C148.4 15.1 148.1 14.5 148.1 13.8Z" fill="black"/>
<path d="M149.9 48.2L160.2 32.9C160.3 32.7 160.5 32.5 160.7 32.2C162 30.2 162.7 28.9 162.7 28.2C162.7 27.9 162.6 27.6 162.4 27.4C162.2 27.2 162 27.1 161.6 27.1C160.8 27.1 159.7 27.7 158.3 28.7C157 29.8 155 31.7 152.3 34.5C151.7 35.1 151.1 35.8 150.4 36.7C149.5 37.8 148.9 38.4 148.6 38.4C148.5 38.4 148.4 38.4 148.3 38.3C148.2 38.2 148.2 38.2 148.2 38.1C148.2 37.9 148.3 37.6 148.5 37.3C148.8 37 149.2 36.4 149.9 35.5L152.4 32.8C154.9 30.1 156.9 28.3 158.2 27.3C159.5 26.3 160.6 25.9 161.8 25.9C162.7 25.9 163.5 26.2 164.1 26.9C164.7 27.6 164.9 28.5 164.9 29.6C164.9 30.8 164.6 32 164.1 33.4C163.6 34.7 162.8 36.3 161.7 38.1C165.7 33.6 168.8 30.5 170.9 28.7C173 26.9 174.8 26 176 26C176.9 26 177.6 26.3 178.1 27C178.7 27.7 178.9 28.6 178.9 29.8C178.9 31.8 177.6 34.5 175 38C174.6 38.6 174.2 39 174.1 39.3C172.7 41.2 171.7 42.7 171.2 43.6C170.7 44.5 170.4 45.3 170.4 45.9C170.4 46.4 170.5 46.7 170.7 47C170.9 47.3 171.2 47.3 171.6 47.3C172.3 47.3 173.4 46.7 174.8 45.5C176.3 44.3 178 42.7 180.1 40.5C180.7 39.9 181.4 39.1 182.2 38.2C183 37.3 183.5 36.8 183.7 36.8C183.8 36.8 184 36.8 184 36.9C184.1 37 184.2 37.1 184.2 37.2C184.2 37.6 183 39 180.8 41.3L180.3 41.8C178.1 44 176.3 45.7 174.8 46.8C173.3 47.9 172.2 48.4 171.5 48.4C170.4 48.4 169.5 47.9 168.8 46.9C168.1 45.9 167.8 44.5 167.8 42.9C167.8 41.7 168.1 40.5 168.7 39.1C169.3 37.7 170.7 35.8 172.8 33.2C173.1 32.9 173.5 32.4 174 31.7C175.5 29.9 176.3 28.6 176.3 28C176.3 27.7 176.2 27.4 176.1 27.3C176 27.2 175.8 27.1 175.4 27.1C174.2 27.1 171.7 28.9 168.1 32.6C164.5 36.3 160.2 41.3 155.2 47.6L149.9 48.2Z" fill="black"/>
<path d="M52.4 56.3V68.2H50.5L50.6 66.9H50.5C50.1 67.9 49.3 68.4 48 68.4C46.7 68.4 45.8 68.1 45.4 67.5C45 66.9 44.8 65.7 44.8 63.8C44.8 62.3 45.1 61.3 45.5 60.7C46 60.1 46.8 59.8 47.9 59.8C49.2 59.8 50.1 60.2 50.4 61.1V56.3H52.4ZM48.4 61.4C47.6 61.4 47.2 61.6 46.9 61.9C46.6 62.2 46.6 62.9 46.6 64C46.6 65.2 46.7 66 46.9 66.4C47.2 66.7 47.6 66.9 48.4 66.9C49.2 66.9 49.7 66.7 49.9 66.4C50.2 66.1 50.2 65.2 50.2 64C50.2 63 50.1 62.3 49.9 62C49.7 61.5 49.2 61.4 48.4 61.4Z" fill="black"/>
<path d="M70.5 65.6H72.5V65.9C72.5 67.5 71.3 68.3 68.8 68.3C67.1 68.3 66.1 68 65.5 67.5C65 66.9 64.7 65.7 64.7 63.9C64.7 62.3 65 61.2 65.5 60.6C66.1 60 67.1 59.8 68.6 59.8C70.1 59.8 71.1 60.1 71.6 60.6C72.1 61.1 72.4 62.2 72.4 63.8V64.4H66.8C66.8 64.6 66.8 64.7 66.8 64.7C66.8 65.5 66.9 66.1 67.2 66.4C67.5 66.7 68 66.8 68.7 66.8C69.5 66.8 69.9 66.7 70.1 66.5C70.4 66.4 70.5 66.1 70.5 65.6ZM70.5 63.2V62.9C70.5 62.2 70.4 61.8 70.2 61.6C69.9 61.4 69.5 61.3 68.7 61.3C67.9 61.3 67.5 61.4 67.2 61.6C66.9 61.8 66.9 62.4 66.9 63.2H70.5V63.2Z" fill="black"/>
<path d="M85 59.9H87L86.9 61.3C87.3 60.3 88.2 59.8 89.5 59.8C91.5 59.8 92.5 60.7 92.5 62.6V68.3H90.5V63.3V63V62.4C90.4 61.8 89.9 61.5 89 61.5C87.7 61.5 87 62.1 87 63.4V68.4H85V59.9Z" fill="black"/>
<path d="M110.7 59.9V61.4H107.5V65.6C107.5 66.4 107.8 66.8 108.4 66.8C109 66.8 109.4 66.3 109.4 65.4V65H111.1V65.4C111.1 65.8 111.1 66.1 111.1 66.4C111 67.7 110 68.3 108.2 68.3C106.4 68.3 105.5 67.5 105.5 65.9V61.4H104.4V59.9H105.5V58.1H107.5V59.9H110.7V59.9Z" fill="black"/>
<path d="M124.9 56.3V58H122.9V56.3H124.9ZM124.9 59.9V68.3H122.9V59.9H124.9Z" fill="black"/>
<path d="M144.6 62.1H142.6C142.6 62 142.6 62 142.6 61.9C142.6 61.5 142.4 61.2 142.3 61.1C142.1 61 141.7 60.9 140.9 60.9C139.9 60.9 139.3 61.2 139.3 61.9C139.3 62.4 139.4 62.7 139.6 62.7C139.8 62.8 140.4 62.9 141.4 62.9C142.8 63 143.8 63.2 144.2 63.5C144.6 63.8 144.8 64.4 144.8 65.4C144.8 66.4 144.5 67.2 143.9 67.5C143.3 67.9 142.3 68.1 140.8 68.1C139.4 68.1 138.4 67.9 137.9 67.6C137.4 67.3 137.1 66.6 137.1 65.6V65.4H139.2C139.2 65.5 139.2 65.6 139.2 65.7C139.1 66.5 139.7 66.8 140.9 66.8C142.2 66.8 142.8 66.5 142.8 65.7C142.8 65 142.4 64.6 141.6 64.6C139.8 64.6 138.6 64.4 138.1 64.1C137.5 63.8 137.2 63.1 137.2 62C137.2 61.1 137.5 60.4 138 60.1C138.5 59.8 139.5 59.6 141 59.6C142.4 59.6 143.4 59.8 143.8 60.1C144.4 60.5 144.6 61.2 144.6 62.1Z" fill="black"/>
<path d="M162.7 59.9V61.4H159.5V65.6C159.5 66.4 159.8 66.8 160.4 66.8C161 66.8 161.3 66.3 161.3 65.4V65H163V65.4C163 65.8 163 66.1 163 66.4C162.9 67.7 161.9 68.3 160.1 68.3C158.3 68.3 157.4 67.5 157.4 65.9V61.4H156.3V59.9H157.4V58.1H159.4V59.9H162.7V59.9Z" fill="black"/>
<path d="M174.9 59.9H176.9L176.8 61.1C177.3 60.2 178 59.8 179.1 59.8C180.6 59.8 181.3 60.7 181.3 62.6V63.2H179.4C179.4 62.9 179.4 62.9 179.4 62.8C179.4 61.9 179.1 61.5 178.4 61.5C177.4 61.5 176.9 62.2 176.9 63.5V68.4H174.9V59.9Z" fill="black"/>
<path d="M200.1 59.9L197.9 68.8C197.6 70.1 197.2 70.9 196.7 71.3C196.2 71.7 195.5 71.9 194.5 71.9C194.2 71.9 194 71.9 193.8 71.9V70.4C194 70.4 194.1 70.4 194.2 70.4C195 70.4 195.6 69.6 195.8 68.2H194.8L192.1 59.8H194.2L195.2 63.3L195.7 65.1C195.7 65.2 195.8 65.5 196 66L196.3 66.9L196.5 66C196.6 65.5 196.7 65.2 196.7 65.1L197.1 63.3L197.9 59.8L200.1 59.9Z" fill="black"/>
<path d="M200.2 51.6H44.6V52.7H200.2V51.6Z" fill="black"/>
</svg>
